<svg xmlns="http://www.w3.org/2000/svg" version="1.1" xmlns:xlink="http://www.w3.org/1999/xlink" width="934" height="934"><svg xmlns="http://www.w3.org/2000/svg" version="1.1" xmlns:xlink="http://www.w3.org/1999/xlink" width="934" height="934"><svg width="934" height="934" viewBox="0 0 934 934" fill="none" xmlns="http://www.w3.org/2000/svg">
<rect width="934" height="934" fill="white"></rect>
<path d="M553.326 66.4264C550.891 65.7065 548.235 64.943 545.357 64.1358C542.36 62.9197 538.541 61.5141 533.899 59.9191C529.315 58.3227 525.843 57.2295 523.482 56.6395C522.776 56.4587 521.839 56.2331 520.669 55.9628C514.379 53.9065 510.855 52.7439 510.096 52.4749C507.978 51.7114 506.728 51.2776 506.346 51.1735C504.922 50.7223 503.638 50.4447 502.492 50.3405C501.295 50.2046 500.184 50.2046 499.158 50.3405C475.22 44.6649 449.682 40.7953 422.542 38.7317C420.669 37.6507 418.69 37.1995 416.605 37.3782C415.629 37.4756 414.622 37.7186 413.584 38.107C352.451 34.302 297.467 40.306 248.633 56.1189C209.605 68.7863 173.771 87.9436 141.131 113.591C108.249 139.446 81.3212 169.778 60.3486 204.588C39.1677 239.675 25.0355 277.729 17.952 318.75C13.0963 346.763 11.8115 374.44 14.0978 401.782C14.4381 402.948 14.6291 404.302 14.6707 405.843C14.6837 406.389 14.6837 407.031 14.6707 407.769C14.8522 409.318 15.0258 410.862 15.1916 412.402C15.061 412.703 14.9394 413.016 14.827 413.339C14.9157 414.103 15.0546 415.04 15.2437 416.15C15.5214 417.851 15.6951 419.1 15.7645 419.898C15.9381 421.425 16.0249 423.751 16.0249 426.874C16.0457 427.308 16.0804 427.794 16.1291 428.332C18.0646 436.673 19.8876 443.909 21.5979 450.04C24.2369 459.41 27.1015 467.93 30.1918 475.6C32.6718 481.713 35.4496 487.665 38.5253 493.456C38.4777 494.466 38.5819 495.455 38.8378 496.423C39.1156 497.499 39.6017 498.696 40.2962 500.015C40.7129 500.813 41.3726 501.959 42.2754 503.451C42.8309 504.457 43.6469 506.158 44.7233 508.553C45.7303 510.774 46.581 512.457 47.2755 513.602C48.213 515.129 49.5325 516.969 51.2339 519.12C53.7339 522.174 55.1576 523.944 55.5048 524.43C56.4423 525.714 57.8138 527.623 59.6194 530.157C61.0778 532.031 63.1265 534.235 65.7654 536.768C69.8627 540.655 72.0329 542.737 72.2759 543.015C73.2134 543.987 74.6023 545.462 76.4427 547.44C77.8142 548.811 79.0989 549.939 80.2969 550.824C77.0142 556.311 74.4621 561.968 72.6405 567.794C70.2793 575.325 68.9772 583.62 68.7342 592.678C68.5606 600.278 69.1161 608.712 70.4009 617.978C72.4148 632.242 75.5225 644.579 79.724 654.991C84.8629 667.797 92.1895 679.406 101.704 689.818C111.218 700.264 122.103 708.645 134.36 714.962C146.652 721.278 159.795 725.286 173.788 726.987C181.433 727.897 188.986 728.071 196.445 727.507C196.895 727.011 197.346 726.508 197.799 725.998C206.131 725.531 214.812 723.987 223.841 721.365C223.97 721.328 224.091 721.293 224.206 721.261C224.71 722.621 225.404 724.252 226.289 726.154C238.164 752.495 254.831 776.737 276.29 798.879C296.672 819.945 320.18 837.905 346.812 852.758C366.818 863.926 388.381 873.244 411.501 880.713C415.615 882.908 419.313 884.765 422.595 886.284C452.832 892.359 480.819 895.587 506.554 895.966C536.798 896.383 564.715 892.93 590.306 885.607C593.257 884.774 597.667 883.525 603.535 881.859C606.05 881.226 608.412 880.723 610.619 880.349C610.699 880.341 610.768 880.324 610.827 880.297C631.313 870.892 647.182 862.58 658.432 855.361C662.179 852.948 665.738 850.467 669.109 847.917C669.617 847.891 670.121 847.804 670.62 847.657C671.35 847.154 672.01 846.686 672.599 846.251C676.526 843.384 680.19 840.833 683.589 838.599C695.575 826.071 705.61 814.601 713.693 804.189C724.041 790.792 732.426 777.604 738.85 764.625C745.968 750.187 751.645 734.154 755.882 716.523C758.8 704.298 761.075 691.041 762.705 676.751C762.775 676.658 762.844 676.553 762.913 676.439C763.885 674.877 764.562 672.986 764.944 670.765C765.187 669.272 765.361 667.207 765.465 664.57C767.578 613.387 762.092 561.329 749.006 508.397C749.012 507.207 749.064 506.045 749.163 504.909C747.268 493.567 746.018 484.318 745.413 477.162C744.475 466.507 744.475 456.825 745.413 448.114C746.107 442.734 746.611 438.709 746.923 436.036C747.444 431.316 747.583 427.291 747.34 423.959C747.278 423.171 747.192 422.408 747.079 421.668C747.226 421.604 747.365 421.535 747.496 421.46L747.548 421.044C747.574 420.922 747.591 420.783 747.6 420.627C747.797 420.446 747.988 420.255 748.173 420.055C750.673 417.313 754.545 413.356 759.788 408.185C765.274 402.702 769.771 398.694 773.278 396.16C778.885 392.179 784.944 389.316 791.455 387.571C793.21 387.845 794.738 388.244 796.039 388.768C796.989 389.172 797.857 389.64 798.643 390.173C807.05 392.178 817.415 394.226 829.737 396.316C849.008 399.579 862.342 402.077 869.738 403.813C873.175 404.611 878.332 405.86 885.207 407.561C891.214 408.914 896.44 409.747 900.884 410.059C902.1 410.151 903.246 410.186 904.322 410.164C906.382 411.735 908.569 412.429 910.884 412.246C913.28 412.038 915.381 410.892 917.187 408.81C918.853 406.832 919.843 404.541 920.155 401.938C920.443 399.42 920.061 396.557 919.009 393.349C920.913 389.711 921.451 384.609 920.624 378.044C919.478 368.812 917.291 360.587 914.061 353.369C910.501 345.46 905.813 339.092 899.999 334.263C899.267 332.979 898.364 331.695 897.29 330.411C894.79 327.461 891.162 324.39 886.405 321.197C870.918 310.716 853.053 300.929 832.81 291.836C817.671 285.034 798.608 277.538 775.622 269.347C749.649 260.359 730.221 253.505 717.339 248.785C705.839 244.577 695.214 240.447 685.464 236.395C685.505 234.603 685.28 232.659 684.787 230.564C684.439 229.003 683.814 226.868 682.912 224.161L672.807 193.603C671.835 190.619 670.95 188.363 670.151 186.836C668.936 184.441 667.46 182.619 665.724 181.37C665.491 181.202 665.248 181.046 664.995 180.901C656.396 163.867 646.014 147.885 633.848 132.956C621.383 117.651 607.424 103.943 591.972 91.8306C580.044 82.4717 567.162 74.0036 553.326 66.4264ZM549.94 89.8003V89.7483C553.527 91.891 557.034 94.0948 560.461 96.3596C578.483 108.263 594.733 122.371 609.212 138.683C623.692 154.994 635.775 172.78 645.463 192.042C646.488 194.075 647.547 195.897 648.64 197.508C649.287 199.256 650.485 201.981 652.234 205.681C655.077 211.766 657.23 217.995 658.692 224.37C656.618 223.386 655.003 222.675 653.849 222.235C651.349 221.298 649.057 220.778 646.973 220.673C644.473 220.535 642.147 221.003 639.994 222.079C638.87 222.641 637.915 223.3 637.13 224.057C636.872 224.851 636.559 225.632 636.192 226.4C635.747 227.309 635.244 228.159 634.682 228.951C634.508 230.303 634.629 231.709 635.046 233.167C635.636 235.215 636.678 237.054 638.171 238.685C639.456 240.074 641.105 241.375 643.119 242.59C644.439 243.353 646.348 244.308 648.848 245.453C662.46 251.7 678.241 258.155 696.193 264.818C704.978 268.081 721.072 273.79 744.475 281.945C786.247 296.522 817.914 309.137 839.477 319.791C849.859 324.962 858.626 329.873 865.779 334.524C867.863 335.912 869.46 337.075 870.571 338.012C872.203 339.4 873.505 340.823 874.477 342.28C875.033 343.148 875.901 344.901 877.082 347.538C877.527 348.52 877.961 349.387 878.384 350.141C875.542 348.73 872.607 347.463 869.581 346.341C859.72 342.662 849.303 340.719 838.331 340.51C827.636 340.302 817.098 341.742 806.716 344.831C789.806 349.898 772.931 359.581 756.09 373.879C745.43 382.937 731.454 397.184 714.162 416.619L656.453 481.483C643.953 495.538 633.866 505.88 626.192 512.509C614.074 522.955 601.955 530.226 589.837 534.321C589.762 534.344 589.675 534.361 589.577 534.373C588.207 534.06 586.697 533.852 585.045 533.749C583.379 533.645 580.879 533.662 577.545 533.801C551.364 534.703 522.423 533.124 490.721 529.063C468.637 526.183 439.956 521.255 404.678 514.279C364.394 506.331 329.689 498.748 300.561 491.53C300.678 491.852 300.783 492.165 300.874 492.467C272.822 484.498 246.728 475.856 222.591 466.542C221.707 467.221 220.596 468.002 219.258 468.885C203.841 479.123 188.563 486.949 173.423 492.363C169.951 493.577 167.347 494.48 165.611 495.07C162.555 496.146 160.003 497.135 157.954 498.037C154.586 499.529 152.798 500.31 152.59 500.38C150.541 501.178 148.684 501.594 147.017 501.629C146.583 501.642 146.149 501.625 145.715 501.577C130.338 507.43 117.369 514.284 106.808 522.14C102.283 525.517 98.1159 529.109 94.3075 532.916C92.2936 531.562 90.8005 530.538 89.8283 529.844C87.5713 528.248 85.2622 526.166 82.9011 523.597C81.5469 522.14 79.5156 519.762 76.8072 516.465C73.8211 512.787 71.5815 509.941 70.0884 507.928C68.2981 505.454 66.7529 503.094 65.4529 500.848C65.5047 500.789 65.5394 500.719 65.557 500.64C65.4601 500.471 65.3559 500.298 65.2445 500.119C64.307 498.592 63.1959 496.302 61.9111 493.248L57.3798 482.316C49.3548 466.364 43.4172 449.636 39.567 432.132C39.8324 431.941 40.0928 431.75 40.3483 431.559C34.0777 396.14 34.0256 360.307 40.192 324.06C46.6157 286.336 59.2548 251.249 78.1093 218.799C96.9985 186.385 121.27 158.048 150.923 133.789C180.576 109.53 213.164 91.3794 248.685 79.3367C279.797 68.7516 314.52 62.5394 352.854 60.7C353.548 62.3354 354.676 64.0012 356.239 65.6976C333.039 76.1183 311.389 91.4927 291.29 111.821C270.63 132.713 252.487 157.892 236.862 187.356C217.903 223.103 204.292 261.053 196.028 301.207C187.764 341.326 185.281 381.549 188.58 421.877C188.927 426.215 189.761 429.789 191.08 432.6C192.781 436.279 195.212 438.396 198.372 438.951C200.907 439.403 203.337 438.726 205.664 436.921C207.851 435.221 209.379 433.034 210.247 430.362C210.976 428.141 211.306 425.521 211.237 422.501C211.167 421.078 210.907 418.406 210.455 414.484C209.568 407.1 209.012 399.43 208.789 391.475C208.806 390.413 208.823 389.337 208.841 388.247C208.98 380.577 209.57 370.947 210.612 359.355C212.452 338.914 214.761 320.885 217.539 305.267C217.643 304.687 217.747 304.097 217.851 303.497C223.804 275.311 232.242 248.692 243.164 223.641C245.373 218.566 247.664 213.586 250.039 208.7C261.737 186.556 276.512 164.379 294.363 142.17C301.121 133.803 307.684 126.307 314.051 119.681C333.975 100.873 354.479 88.3447 375.562 82.0958C377.463 81.534 379.182 80.9613 380.719 80.3779C385.851 81.7883 390.99 82.3089 396.136 81.9396C403.184 81.4537 409.712 79.2846 415.719 75.4324C421.206 71.8925 425.424 67.4849 428.376 62.2097C457.022 64.6391 483.29 69.0119 507.179 75.3283C522.284 79.3541 536.537 84.1781 549.94 89.8003ZM497.283 591.324C509.089 594.309 518.065 596.461 524.211 597.78C534.211 599.897 543.291 601.354 551.451 602.152C566.555 603.61 581.694 603.159 596.868 600.799C606.26 599.36 615.41 597.225 624.317 594.396C629.32 592.806 634.234 591.002 639.057 588.982C639.571 588.776 640.075 588.568 640.567 588.357C646.505 585.824 651.366 583.256 655.151 580.653C656.6 579.66 657.937 578.619 659.161 577.529C660.23 579.478 661.115 581.369 661.817 583.203C661.816 583.25 661.816 583.284 661.817 583.308C662.304 589.312 661.436 595.107 659.213 600.695C657.026 606.074 653.744 610.933 649.369 615.271C645.133 619.401 640.255 622.681 634.734 625.11C630.22 627.123 627.945 628.129 627.911 628.129C625.411 629.413 623.553 630.906 622.338 632.606C621.261 634.168 620.619 635.903 620.41 637.812C620.202 639.755 620.48 641.56 621.244 643.226C622.008 644.961 623.171 646.402 624.733 647.547C626.296 648.692 627.997 649.369 629.838 649.577C631.4 649.785 633.119 649.646 634.994 649.161C636.314 648.814 637.98 648.206 639.994 647.339C648.675 643.556 655.758 639.2 661.244 634.272C664.022 631.704 666.904 628.528 669.891 624.746C673.085 620.65 675.602 616.746 677.443 613.033C682.004 604.17 684.052 594.592 683.589 584.297C683.818 584.104 684.044 583.913 684.266 583.724C686.349 581.954 689.092 579.993 692.495 577.842C697.46 574.787 702.339 572.063 707.131 569.669C711.02 567.69 714.735 566.059 718.277 564.775C722.374 563.283 725.933 562.519 728.954 562.485C729.787 562.485 731.02 562.519 732.652 562.589C733.185 562.576 733.689 562.541 734.162 562.485C734.302 563.012 734.423 563.498 734.527 563.942C734.84 565.261 735.204 567.274 735.621 569.981C736.003 572.688 736.35 574.701 736.662 576.019C737.371 579.023 738.413 581.487 739.788 583.412C741.392 596.875 742.451 610.34 742.965 623.809C742.955 625.817 742.937 627.847 742.913 629.899C742.739 645.031 742.149 658.271 741.142 669.619C739.857 683.848 737.791 696.915 734.944 708.819C729.909 729.781 721.905 749.684 710.933 768.529C705.264 778.253 698.961 787.415 692.026 796.015C691.973 796.034 691.904 796.034 691.818 796.015L684.266 805.074C679.821 810.349 676.401 814.236 674.005 816.734C670.012 820.899 666.123 824.3 662.338 826.938C662.17 827.059 661.996 827.18 661.817 827.302C661.637 826.95 661.411 826.62 661.14 826.313C653.441 831.684 645.802 836.334 638.223 840.265C632.807 843.076 626.556 845.939 619.473 848.854C615.306 850.555 608.882 853.036 600.202 856.298L580.149 863.743C575.496 865.408 571.92 866.346 569.42 866.554C568.782 866.616 568.157 866.651 567.545 866.658C559.248 869.09 550.672 871.085 541.815 872.644C526.973 875.261 511.209 876.701 494.523 876.965C442.213 870.238 396.397 855.87 357.073 833.861C332.662 820.222 311.134 803.755 292.488 784.459C272.9 764.152 257.726 741.941 246.966 717.825C245.909 716.263 244.798 714.441 243.633 712.359C240.602 706.969 238.293 702.18 236.706 697.991C233.332 698.823 228.697 699.725 222.799 700.698C212.521 702.398 204.639 703.578 199.153 704.238C190.403 705.279 182.469 705.782 175.351 705.747C171.566 705.713 168.371 705.452 165.767 704.966C162.33 704.307 159.395 703.179 156.965 701.583C156.622 701.356 156.275 701.096 155.923 700.802C142.017 695.858 129.985 688.049 119.829 677.376C109.447 666.444 101.686 653.343 96.5472 638.072C91.6165 623.461 89.5679 608.278 90.4012 592.522C91.0262 581.208 93.1964 571.89 96.9118 564.567C100.974 556.619 108.006 548.88 118.006 541.349C128.284 533.61 139.465 527.346 151.548 522.556C163.666 517.767 176.115 514.661 188.893 513.238C193.025 512.787 196.566 512.665 199.518 512.873C203.407 513.186 206.757 514.106 209.57 515.633C210.959 516.396 212.643 517.576 214.622 519.173C217.087 521.151 218.719 522.417 219.518 522.973C220.159 523.4 220.784 523.782 221.393 524.118C223.06 527.452 225.265 531.304 228.008 535.675C228.115 535.574 228.219 535.469 228.32 535.362C230.08 538.656 231.955 542.04 233.945 545.514C237.522 551.761 243.13 561.096 250.769 573.521L288.686 635.105C289.415 635.457 290.161 635.838 290.926 636.25C295.474 638.749 298.964 640.068 301.394 640.207C304.658 640.38 308.131 639.304 311.811 636.979C313.684 635.751 315.281 634.432 316.603 633.023L317.593 616.312C318.843 596.322 320.093 581.364 321.343 571.438C322.523 561.999 324.503 550.112 327.28 535.779C327.32 535.571 327.355 535.363 327.385 535.154C329.307 536.128 331.199 537.135 333.062 538.174C333.129 538.011 333.198 537.837 333.27 537.653C340.226 540.114 347.067 542.456 353.791 544.681C372.476 553.63 393.622 561.855 417.23 569.356C435.112 575.048 461.797 582.371 497.283 591.324ZM714.839 450.196C714.897 450.212 714.949 450.229 714.995 450.248C714.958 450.264 714.923 450.281 714.891 450.3C714.807 450.352 714.72 450.404 714.631 450.456C714.711 450.37 714.781 450.283 714.839 450.196ZM238.06 503.972C238.085 504 238.102 504.017 238.112 504.024C238.143 504.126 238.16 504.23 238.164 504.336C238.135 504.219 238.1 504.097 238.06 503.972ZM304.259 542.598C304.237 542.724 304.203 542.846 304.155 542.963C304.117 542.695 304.083 542.452 304.051 542.234C304.144 542.219 304.23 542.201 304.311 542.182C304.3 542.321 304.282 542.46 304.259 542.598ZM672.599 702.676C674.092 698.511 674.127 694.728 672.703 691.327C671.661 688.829 669.89 686.868 667.39 685.445C667.115 685.292 666.837 685.153 666.557 685.028C666.406 684.882 666.25 684.744 666.088 684.612C664.665 683.432 662.859 682.512 660.672 681.853C659.109 681.367 657.095 680.968 654.63 680.656C640.359 678.816 624.126 679.857 605.931 683.779C599.021 685.271 591.122 687.319 582.233 689.922C579.663 690.685 571.851 693.097 558.795 697.158C557.38 697.588 556.078 698.004 554.888 698.407C551.158 700.761 547.46 703.347 543.795 706.164C543.737 706.301 543.668 706.422 543.586 706.528C543.31 706.71 543.015 706.883 542.701 707.049C538.268 710.57 533.91 714.457 529.628 718.71C522.718 725.616 515.947 733.581 509.315 742.604C503.794 750.101 498.012 758.846 491.971 768.841C489.002 773.723 486.849 777.783 485.512 781.023C485.572 785.295 486.319 788.853 487.752 791.695C488.621 793.37 489.715 794.793 491.033 795.963C491.034 796.223 491.034 796.466 491.033 796.692L498.429 801.013C501.242 802.644 503.429 803.789 504.992 804.449C507.492 805.49 509.836 806.028 512.023 806.063C512.368 806.063 513.202 806.028 514.523 805.958C535.843 798.809 552.25 793.673 563.743 790.549C573.529 787.892 582.869 785.723 591.764 784.042C592.862 784.117 593.973 783.978 595.097 783.626C595.441 783.531 595.771 783.41 596.087 783.261C598.53 782.871 600.926 782.507 603.275 782.168C604.106 782.415 604.974 782.553 605.879 782.585C607.893 782.689 609.733 782.272 611.4 781.335C611.531 781.264 611.653 781.177 611.764 781.075C612.327 781.039 612.882 780.987 613.431 780.919C613.945 780.073 614.535 779.153 615.202 778.16C618.084 773.787 620.376 770.472 622.077 768.217C623.98 765.672 625.873 763.416 627.754 761.449C627.679 761.38 627.593 761.311 627.494 761.241C632.403 754.703 637.785 747.849 643.64 740.678C646.071 737.659 649.786 733.199 654.786 727.299C657.529 724.106 659.56 721.712 660.88 720.115C663.206 717.339 665.168 714.875 666.765 712.723C669.647 708.871 671.592 705.522 672.599 702.676ZM647.598 702.468C647.476 702.696 647.337 702.921 647.182 703.144C646.661 703.908 645.845 704.88 644.734 706.06C640.484 710.79 636.3 715.579 632.182 720.428C631.8 719.979 631.366 719.562 630.879 719.178C628.9 717.582 625.758 716.454 621.452 715.794C613.848 714.615 605.15 713.903 595.358 713.66C590.566 713.487 587.459 713.348 586.035 713.244C584.546 713.055 583.296 712.898 582.285 712.775C582.657 712.654 583.021 712.533 583.379 712.411C592.025 709.6 599.594 707.431 606.087 705.904C621.359 702.33 635.196 701.185 647.598 702.468ZM514.94 760.72C518.69 755.653 521.832 751.628 524.367 748.643C526.599 746.005 528.804 743.61 530.982 741.459C532.58 742.002 534.403 742.332 536.451 742.448L546.399 742.344C550.357 742.275 553.569 742.726 556.034 743.697C558.291 744.6 560.843 746.283 563.691 748.747C569.707 753.959 574.082 759.442 576.816 765.197C572.923 766.035 569.173 766.885 565.566 767.748C549.732 771.566 535.201 775.973 521.971 780.971C519.992 781.734 518.603 782.22 517.805 782.428C516.207 782.88 514.749 783.07 513.429 783.001C512.631 782.966 511.433 782.758 509.836 782.376C509.134 782.205 508.509 782.066 507.961 781.96C507.76 781.284 507.621 780.763 507.544 780.398C506.988 777.24 507.527 773.804 509.159 770.091C510.304 767.557 512.232 764.434 514.94 760.72ZM116.808 566.961L116.756 565.92C116.617 565.4 116.409 565.001 116.131 564.723V568.315C116.352 567.872 116.577 567.421 116.808 566.961ZM177.382 548.637C172.208 548.047 167.156 548.359 162.225 549.574C149.899 552.628 138.44 561.131 127.85 575.082C123.544 580.774 119.742 586.743 116.443 592.99C115.471 594.934 114.777 596.513 114.36 597.728C113.735 599.567 113.475 601.25 113.579 602.777C113.752 605.345 114.898 607.584 117.016 609.493C119.134 611.401 121.496 612.304 124.1 612.2C127.607 612.061 130.819 610.291 133.735 606.89C134.812 605.675 135.888 604.148 136.965 602.309C137.381 601.58 138.284 599.897 139.673 597.259C144.465 588.166 149.621 581.486 155.142 577.217C158.684 574.51 162.503 572.618 166.6 571.543C171.045 570.432 175.229 570.432 179.153 571.543C183.354 572.792 187.972 575.759 193.007 580.444C194.176 581.548 195.304 582.676 196.393 583.828C193.741 584.954 191.293 586.411 189.049 588.201C186.34 590.422 183.372 593.615 180.142 597.78C177.538 601.111 175.715 603.818 174.674 605.901C173.632 607.948 172.434 611.228 171.08 615.74C169.587 620.668 168.91 624.503 169.048 627.244C169.118 628.841 169.569 631.201 170.403 634.324C171.653 639.252 173.007 642.966 174.465 645.465C175.924 647.963 178.076 650.584 180.924 653.325C184.882 657.108 189.066 660.023 193.476 662.071C198.441 664.396 203.337 665.472 208.164 665.298C213.06 665.125 216.758 663.667 219.258 660.926C220.542 659.537 221.393 657.889 221.81 655.98C222.226 654.071 222.14 652.215 221.549 650.41C220.994 648.64 219.987 647.096 218.528 645.777C217.07 644.458 215.421 643.608 213.58 643.226C212.678 643.018 211.445 642.914 209.882 642.914C207.973 642.914 206.723 642.879 206.132 642.81C202.452 642.497 199.275 641.109 196.601 638.645C194.031 636.285 192.365 633.266 191.601 629.587C190.837 625.978 191.08 622.49 192.33 619.123C193.372 616.347 195.49 613.067 198.684 609.284C200.004 607.723 201.15 606.56 202.122 605.796C203.546 604.651 204.987 603.975 206.445 603.766C207.209 603.662 208.303 603.697 209.726 603.87C210.299 603.934 210.802 603.986 211.237 604.027C213.407 607.977 215.3 612.107 216.914 616.416C218.094 619.609 218.945 621.691 219.466 622.663C220.612 624.954 221.966 626.672 223.529 627.817C225.994 629.656 228.876 630.177 232.175 629.379C235.473 628.58 237.8 626.811 239.154 624.069C240.404 621.57 240.664 618.603 239.935 615.167C239.414 612.842 238.303 609.874 236.602 606.265C233.303 599.324 230.49 593.823 228.164 589.763C224.761 583.863 221.254 578.796 217.643 574.562C215.143 571.647 212.001 568.454 208.216 564.983C201.966 559.257 196.549 555.248 191.966 552.958C187.417 550.667 182.556 549.227 177.382 548.637ZM581.399 229.836C585.913 229.836 589.143 228.447 591.087 225.671C592.615 223.519 593.032 220.951 592.337 217.966C591.677 215.155 590.254 212.83 588.066 210.991C586.156 209.394 583.778 208.145 580.931 207.243C578.743 206.583 576.035 206.063 572.805 205.681C553.638 203.425 533.204 205.924 511.502 213.177C494.071 218.973 475.078 228.135 454.522 240.664C418.237 262.805 382.299 290.761 346.708 324.529C317.367 352.362 286.394 386.044 253.79 425.573C251.845 427.933 250.421 429.807 249.519 431.195C248.06 433.381 247.071 435.498 246.55 437.546C245.925 439.941 245.942 442.283 246.602 444.574C247.331 447.038 248.651 448.86 250.56 450.04C252.227 451.081 254.171 451.497 256.394 451.289C258.408 451.081 260.335 450.404 262.175 449.259C263.703 448.322 265.231 447.003 266.758 445.303C267.696 444.296 268.998 442.7 270.665 440.513C306.013 394.494 345.597 352.64 389.417 314.95C409.313 297.84 428.272 283.299 446.293 271.326C467.439 257.201 488.377 245.869 509.106 237.332C520.148 232.786 530.044 229.679 538.794 228.014C549.906 225.931 560.097 225.914 569.368 227.962C574.958 229.211 578.969 229.836 581.399 229.836Z" fill="black"></path>
</svg></svg><style>@media (prefers-color-scheme: light) { :root { filter: none; } }
@media (prefers-color-scheme: dark) { :root { filter: none; } }
</style></svg>