<svg xmlns="http://www.w3.org/2000/svg" version="1.1" xmlns:xlink="http://www.w3.org/1999/xlink" width="568" height="568"><svg xmlns="http://www.w3.org/2000/svg" version="1.1" xmlns:xlink="http://www.w3.org/1999/xlink" width="568" height="568"><svg width="568" height="568" viewBox="0 0 568 568" fill="none" xmlns="http://www.w3.org/2000/svg">
<g clip-path="url(#clip0_389_393)">
<rect width="568" height="568" fill="white"></rect>
<path d="M135.167 272.592C167.178 274.405 194.401 253.345 195.973 225.553C197.544 197.761 172.868 173.761 140.858 171.948C108.847 170.134 81.6236 191.194 80.0521 218.986C78.4807 246.778 103.156 270.778 135.167 272.592Z" fill="#222730"></path>
<path d="M154.998 209C158.312 209 160.998 205.194 160.998 200.5C160.998 195.806 158.312 192 154.998 192C151.684 192 148.998 195.806 148.998 200.5C148.998 205.194 151.684 209 154.998 209Z" fill="white"></path>
<path d="M466.628 243.888C498.639 245.702 525.862 224.642 527.434 196.85C529.005 169.058 504.329 145.058 472.319 143.245C440.308 141.431 413.084 162.491 411.513 190.283C409.942 218.075 434.617 242.075 466.628 243.888Z" fill="#222730"></path>
<path d="M495.871 180.392C499.143 180.392 501.795 176.675 501.795 172.091C501.795 167.506 499.143 163.789 495.871 163.789C492.599 163.789 489.947 167.506 489.947 172.091C489.947 176.675 492.599 180.392 495.871 180.392Z" fill="white"></path>
<path d="M36.5242 -265.896C51.2768 -251.409 74.5189 -221.229 46.7213 -184.114C30.924 -163.021 12.7469 -145.301 7.43513 -145.301C0.589537 -121.272 -19.1641 -72.9374 -36.3908 -54.6114C-53.6176 -36.2853 -55.9694 -10.9158 -54.991 -0.52188C-55.8583 34.9693 -59.055 91.9128 -66.9183 127.41C-59.8932 106.403 -50.201 84.7718 -40.5963 50.7249C-23.6623 -9.29774 11.6529 -45.589 47.3036 -55.5762C75.8238 -63.5666 162.182 -109.659 204.042 -134.188C208.162 -120.213 210.705 -98.4729 190.04 -75.5662C182.225 -66.9035 158.052 -54.6103 152.924 -55.2187C144.92 -41.5327 130.045 -25.4982 103.708 -9.74036C77.3688 6.01745 46.5788 6.78053 46.0784 15.6203C36.9595 52.6331 39.6614 98.116 5.45361 152.621C35.1878 118.226 69.9353 95.0996 91.179 87.7524C117.732 78.5675 163.901 102.2 183.552 118.225C203.204 134.249 280.254 155.77 298.126 157.164C315.628 158.529 311.006 180.603 295.079 185.921C313.093 187.785 324.1 199.064 314.887 200.282C305.448 201.531 288.854 233.449 276.027 251.395C276.208 267.25 265.664 308.149 213.272 357.274C160.879 406.399 148.669 413.943 132.456 414.994C122.511 503.563 12.4158 676.547 -30.8503 702.603C-65.5372 723.491 -159.823 607.123 -219.726 590.931L-219.239 590.621C-192.873 573.747 -97.034 512.412 -134.165 399.925C-169.65 292.422 -226.02 68.9221 -233.729 37.3325C-241.626 4.96979 -202.744 -115.164 -203.24 -205.538C-193.048 -204.962 -175.471 -205.847 -168.358 -166.531C-156.249 -99.6046 -165.234 -109.483 -169.336 -100.576C-169.052 -79.5126 -166.453 -31.745 -178.281 8.55094L-178.224 8.66861C-170.684 24.3525 -147.13 73.3526 -148.828 93.7953C-150.954 119.409 -131.091 -68.0329 -62.0015 -145.775C-8.21289 -206.299 30.2037 -249.58 36.5242 -265.896ZM200.069 189.902C82.3485 143.857 130.034 135.453 75.7587 194.116C53.4334 218.246 40.991 240.661 37.5587 257.624C34.813 271.193 53.5175 287.119 63.2131 293.385C73.8041 301.885 106.989 311.773 122.256 315.654C130.596 304.651 155.253 307.344 171.321 295.948C187.389 284.55 195.738 263.409 206.572 258.303C205.916 249.514 210.089 203.669 276.652 190.997C254.312 194.772 232.492 197.393 200.069 189.902Z" fill="#222730" stroke="#222730" stroke-width="2"></path>
<path d="M481.311 -307.896C468.992 -291.506 450.631 -258.4 483.02 -225.496C501.427 -206.797 514.473 -197.589 526.853 -192.502C536.95 -169.654 563.096 -124.524 582.503 -108.763C601.91 -93.001 607.816 -68.2046 608.343 -57.7762C614.244 -22.7497 627.26 42.9622 639.983 77.0256C630.141 57.1968 615.824 27.3521 601.609 -5.03302C576.547 -62.1282 536.946 -93.1737 500.763 -98.1267C471.818 -102.09 381.055 -135.773 336.747 -154.266C334.722 -139.855 335.34 -117.973 358.75 -98.1525C367.604 -90.6568 396.649 -78.2227 397.837 -83.1421C407.59 -70.6979 424.377 -56.8804 452.302 -44.9239C480.227 -32.9674 510.354 -36.4765 512.102 -27.7913C526.266 7.59835 533.553 63.0523 574.67 112.29C543.534 86.7501 500.165 54.2214 478.406 49.8872C451.208 44.469 409.562 74.2678 392.685 92.8589C375.808 111.449 303.752 143.432 286.526 147.287C274.596 149.957 272.07 166.338 279.269 173.476C269.346 176.069 273.061 189.747 280.092 194.234C306.446 211.051 306.434 221.547 321.496 237.543C323.579 253.269 343.193 287.746 397.765 333.701C454.476 381.457 469.055 391.547 488.119 394.91C510.433 481.242 618.329 637.895 664.225 657.705C701.02 673.587 797.117 529.444 853.212 505.113L852.696 504.872C824.593 491.815 722.408 444.351 742.584 327.813C761.871 216.44 784.983 -12.6957 788 -45.0461C791.095 -78.1891 736.067 -191.77 723.677 -281.334C713.82 -279.352 695.222 -277.828 695.222 -237.874C695.222 -186.939 700.305 -180.949 705.573 -172.695C708.296 -151.798 712.568 -104.134 729.84 -65.8682C724.765 -49.4273 715.992 -8.80778 720.571 11.2509C726.294 36.3242 672.921 -135.17 594.484 -202.588C533.42 -255.074 489.798 -292.614 481.311 -307.896ZM386.793 166.124C476.338 110.91 459.693 106.203 508.592 153.08C532.21 175.719 549.122 194.357 554.885 210.679C559.497 223.737 543.528 242.098 534.968 249.648C525.853 259.531 494.908 273.919 480.575 279.878C466.251 267.158 447.22 276.218 429.93 267.157C412.641 258.096 401.488 238.317 390.196 234.762C389.594 226.106 361.67 182.973 327.292 179.344C325.775 179.287 324.252 179.202 322.707 179.1C324.247 179.1 325.776 179.183 327.292 179.344C342.288 179.904 356.719 177.85 386.793 166.124Z" fill="#222730"></path>
<path d="M327.292 179.344C361.67 182.973 389.594 226.106 390.196 234.762C401.488 238.317 412.641 258.096 429.93 267.157C447.22 276.218 466.251 267.158 480.575 279.878C494.908 273.919 525.853 259.531 534.968 249.648C543.528 242.098 559.497 223.737 554.885 210.679C549.122 194.357 532.21 175.719 508.592 153.08C459.693 106.203 476.338 110.91 386.793 166.124C356.719 177.85 342.288 179.904 327.292 179.344ZM327.292 179.344C325.775 179.287 324.252 179.202 322.707 179.1C324.247 179.1 325.776 179.183 327.292 179.344ZM481.311 -307.896C468.992 -291.506 450.631 -258.4 483.02 -225.496C501.427 -206.797 514.473 -197.589 526.853 -192.502C536.95 -169.654 563.096 -124.524 582.503 -108.763C601.91 -93.001 607.816 -68.2046 608.343 -57.7762C614.244 -22.7497 627.26 42.9622 639.983 77.0256C630.141 57.1968 615.824 27.3521 601.609 -5.03302C576.547 -62.1282 536.946 -93.1737 500.763 -98.1267C471.818 -102.09 381.055 -135.773 336.747 -154.266C334.722 -139.855 335.34 -117.973 358.75 -98.1525C367.604 -90.6568 396.649 -78.2227 397.837 -83.1421C407.59 -70.6979 424.377 -56.8804 452.302 -44.9239C480.227 -32.9674 510.354 -36.4765 512.102 -27.7913C526.266 7.59835 533.553 63.0523 574.67 112.29C543.534 86.7501 500.165 54.2214 478.406 49.8872C451.208 44.469 409.562 74.2678 392.685 92.8589C375.808 111.449 303.752 143.432 286.526 147.287C274.596 149.957 272.07 166.338 279.269 173.476C269.346 176.069 273.061 189.747 280.092 194.234C306.446 211.051 306.434 221.547 321.496 237.543C323.579 253.269 343.193 287.746 397.765 333.701C454.476 381.457 469.055 391.547 488.119 394.91C510.433 481.242 618.329 637.895 664.225 657.705C701.02 673.587 797.117 529.444 853.212 505.113L852.696 504.872C824.593 491.815 722.408 444.351 742.584 327.813C761.871 216.44 784.983 -12.6957 788 -45.0461C791.095 -78.1891 736.067 -191.77 723.677 -281.334C713.82 -279.352 695.222 -277.828 695.222 -237.874C695.222 -186.939 700.305 -180.949 705.573 -172.695C708.296 -151.798 712.568 -104.134 729.84 -65.8682C724.765 -49.4273 715.992 -8.80778 720.571 11.2509C726.294 36.3242 672.921 -135.17 594.484 -202.588C533.42 -255.074 489.798 -292.614 481.311 -307.896Z" stroke="#222730" stroke-width="2"></path>
</g>
<defs>
<clipPath id="clip0_389_393">
<rect width="568" height="568" fill="white"></rect>
</clipPath>
</defs>
</svg></svg><style>@media (prefers-color-scheme: light) { :root { filter: none; } }
@media (prefers-color-scheme: dark) { :root { filter: none; } }
</style></svg>