<svg width="1360" height="1106" viewBox="0 0 1360 1106" fill="none"
  xmlns="http://www.w3.org/2000/svg">
  <rect width="1360" height="1106" rx="100" fill="white" />
  <path
    d="M766.326 152.426C763.891 151.707 761.235 150.943 758.357 150.136C755.36 148.92 751.541 147.514 746.899 145.919C742.315 144.323 738.843 143.23 736.482 142.64C735.776 142.459 734.839 142.233 733.669 141.963C727.379 139.906 723.855 138.744 723.096 138.475C720.978 137.711 719.728 137.278 719.346 137.173C717.922 136.722 716.638 136.445 715.492 136.341C714.295 136.205 713.184 136.205 712.158 136.341C688.22 130.665 662.682 126.795 635.542 124.732C633.669 123.651 631.69 123.199 629.605 123.378C628.629 123.476 627.622 123.719 626.584 124.107C565.451 120.302 510.467 126.306 461.633 142.119C422.605 154.786 386.771 173.944 354.131 199.591C321.249 225.446 294.321 255.778 273.349 290.588C252.168 325.675 238.035 363.729 230.952 404.75C226.096 432.763 224.812 460.44 227.098 487.782C227.438 488.948 227.629 490.302 227.671 491.843C227.684 492.389 227.684 493.031 227.671 493.769C227.852 495.318 228.026 496.862 228.192 498.402C228.061 498.703 227.939 499.016 227.827 499.339C227.916 500.103 228.055 501.04 228.244 502.15C228.521 503.851 228.695 505.1 228.764 505.898C228.938 507.425 229.025 509.751 229.025 512.874C229.046 513.308 229.08 513.794 229.129 514.332C231.065 522.673 232.888 529.909 234.598 536.04C237.237 545.41 240.102 553.93 243.192 561.6C245.672 567.713 248.45 573.665 251.525 579.456C251.478 580.466 251.582 581.455 251.838 582.423C252.116 583.499 252.602 584.696 253.296 586.015C253.713 586.813 254.373 587.959 255.275 589.451C255.831 590.457 256.647 592.158 257.723 594.553C258.73 596.774 259.581 598.457 260.275 599.602C261.213 601.129 262.532 602.969 264.234 605.12C266.734 608.174 268.158 609.944 268.505 610.43C269.442 611.714 270.814 613.623 272.619 616.157C274.078 618.031 276.126 620.235 278.765 622.768C282.863 626.655 285.033 628.737 285.276 629.015C286.213 629.987 287.602 631.462 289.443 633.44C290.814 634.811 292.099 635.939 293.297 636.824C290.014 642.311 287.462 647.968 285.64 653.794C283.279 661.325 281.977 669.62 281.734 678.678C281.561 686.278 282.116 694.712 283.401 703.978C285.415 718.242 288.522 730.579 292.724 740.991C297.863 753.797 305.189 765.406 314.704 775.818C324.218 786.264 335.103 794.645 347.36 800.962C359.652 807.278 372.795 811.286 386.788 812.987C394.433 813.897 401.986 814.071 409.445 813.507C409.895 813.011 410.346 812.508 410.799 811.998C419.131 811.531 427.812 809.987 436.841 807.365C436.97 807.328 437.091 807.293 437.206 807.261C437.71 808.621 438.404 810.252 439.289 812.154C451.164 838.495 467.831 862.737 489.29 884.879C509.672 905.945 533.18 923.905 559.812 938.758C579.818 949.926 601.381 959.244 624.501 966.713C628.615 968.908 632.313 970.765 635.595 972.284C665.832 978.359 693.819 981.587 719.554 981.966C749.798 982.383 777.715 978.93 803.306 971.607C806.257 970.774 810.667 969.525 816.535 967.859C819.05 967.226 821.412 966.723 823.619 966.349C823.699 966.341 823.768 966.324 823.827 966.297C844.313 956.892 860.182 948.58 871.432 941.361C875.179 938.948 878.738 936.467 882.109 933.917C882.617 933.891 883.121 933.804 883.62 933.657C884.35 933.154 885.01 932.686 885.599 932.251C889.526 929.384 893.19 926.833 896.589 924.599C908.575 912.071 918.61 900.601 926.693 890.189C937.041 876.792 945.426 863.604 951.85 850.625C958.968 836.187 964.645 820.154 968.882 802.523C971.8 790.298 974.075 777.041 975.705 762.751C975.775 762.658 975.844 762.553 975.913 762.439C976.885 760.877 977.562 758.986 977.944 756.765C978.187 755.272 978.361 753.207 978.465 750.57C980.578 699.387 975.092 647.329 962.006 594.397C962.012 593.207 962.064 592.045 962.163 590.909C960.268 579.567 959.018 570.318 958.413 563.162C957.475 552.507 957.475 542.825 958.413 534.114C959.107 528.734 959.611 524.709 959.923 522.036C960.444 517.316 960.583 513.291 960.34 509.959C960.278 509.171 960.192 508.408 960.079 507.668C960.226 507.604 960.365 507.535 960.496 507.46L960.548 507.044C960.574 506.922 960.591 506.783 960.6 506.627C960.797 506.446 960.988 506.255 961.173 506.055C963.673 503.313 967.545 499.356 972.788 494.185C978.274 488.702 982.771 484.694 986.278 482.16C991.885 478.179 997.944 475.316 1004.46 473.571C1006.21 473.845 1007.74 474.244 1009.04 474.768C1009.99 475.172 1010.86 475.64 1011.64 476.173C1020.05 478.178 1030.42 480.226 1042.74 482.316C1062.01 485.579 1075.34 488.077 1082.74 489.813C1086.18 490.611 1091.33 491.86 1098.21 493.561C1104.21 494.914 1109.44 495.747 1113.88 496.059C1115.1 496.151 1116.25 496.186 1117.32 496.164C1119.38 497.735 1121.57 498.429 1123.88 498.246C1126.28 498.038 1128.38 496.892 1130.19 494.81C1131.85 492.832 1132.84 490.541 1133.16 487.938C1133.44 485.42 1133.06 482.557 1132.01 479.349C1133.91 475.711 1134.45 470.609 1133.62 464.044C1132.48 454.812 1130.29 446.587 1127.06 439.369C1123.5 431.46 1118.81 425.092 1113 420.263C1112.27 418.979 1111.36 417.695 1110.29 416.411C1107.79 413.461 1104.16 410.39 1099.4 407.197C1083.92 396.716 1066.05 386.929 1045.81 377.836C1030.67 371.034 1011.61 363.538 988.622 355.347C962.649 346.359 943.221 339.505 930.339 334.785C918.839 330.577 908.214 326.447 898.464 322.395C898.505 320.603 898.28 318.659 897.787 316.564C897.439 315.003 896.814 312.868 895.912 310.161L885.807 279.603C884.835 276.619 883.95 274.363 883.151 272.836C881.936 270.441 880.46 268.619 878.724 267.37C878.491 267.202 878.248 267.046 877.995 266.901C869.396 249.867 859.014 233.885 846.848 218.956C834.383 203.651 820.424 189.943 804.972 177.831C793.044 168.472 780.162 160.004 766.326 152.426ZM762.94 175.8V175.748C766.527 177.891 770.034 180.095 773.461 182.36C791.483 194.263 807.733 208.371 822.212 224.683C836.692 240.994 848.775 258.78 858.463 278.042C859.488 280.075 860.547 281.897 861.64 283.508C862.287 285.256 863.485 287.981 865.234 291.681C868.077 297.766 870.23 303.995 871.692 310.37C869.618 309.386 868.003 308.675 866.849 308.235C864.349 307.298 862.057 306.778 859.973 306.673C857.473 306.535 855.147 307.003 852.994 308.079C851.87 308.641 850.915 309.3 850.13 310.057C849.872 310.851 849.559 311.632 849.192 312.4C848.747 313.309 848.244 314.159 847.682 314.951C847.508 316.303 847.629 317.709 848.046 319.167C848.636 321.215 849.678 323.054 851.171 324.685C852.456 326.074 854.105 327.375 856.119 328.59C857.439 329.353 859.348 330.308 861.848 331.453C875.46 337.7 891.241 344.155 909.193 350.818C917.978 354.081 934.072 359.79 957.475 367.945C999.247 382.522 1030.91 395.137 1052.48 405.791C1062.86 410.962 1071.63 415.873 1078.78 420.524C1080.86 421.912 1082.46 423.075 1083.57 424.012C1085.2 425.4 1086.51 426.823 1087.48 428.28C1088.03 429.148 1088.9 430.901 1090.08 433.538C1090.53 434.52 1090.96 435.387 1091.38 436.141C1088.54 434.73 1085.61 433.463 1082.58 432.341C1072.72 428.662 1062.3 426.719 1051.33 426.51C1040.64 426.302 1030.1 427.742 1019.72 430.831C1002.81 435.898 985.931 445.581 969.09 459.879C958.43 468.937 944.454 483.184 927.162 502.619L869.453 567.483C856.953 581.538 846.866 591.88 839.192 598.509C827.074 608.955 814.955 616.226 802.837 620.321C802.762 620.344 802.675 620.361 802.577 620.373C801.207 620.06 799.697 619.852 798.045 619.749C796.379 619.645 793.879 619.662 790.545 619.801C764.364 620.703 735.423 619.124 703.721 615.063C681.637 612.183 652.956 607.255 617.678 600.279C577.394 592.331 542.689 584.748 513.561 577.53C513.678 577.852 513.783 578.165 513.874 578.467C485.822 570.498 459.728 561.856 435.591 552.542C434.707 553.221 433.596 554.002 432.258 554.885C416.841 565.123 401.563 572.949 386.423 578.363C382.951 579.577 380.347 580.48 378.611 581.07C375.555 582.146 373.003 583.135 370.954 584.037C367.586 585.529 365.798 586.31 365.59 586.38C363.541 587.178 361.684 587.594 360.017 587.629C359.583 587.642 359.149 587.625 358.715 587.577C343.338 593.43 330.369 600.284 319.808 608.14C315.283 611.517 311.116 615.109 307.308 618.916C305.294 617.562 303.801 616.538 302.828 615.844C300.571 614.248 298.262 612.166 295.901 609.597C294.547 608.14 292.516 605.762 289.807 602.465C286.821 598.787 284.581 595.941 283.088 593.928C281.298 591.454 279.753 589.094 278.453 586.848C278.505 586.789 278.539 586.719 278.557 586.64C278.46 586.471 278.356 586.298 278.245 586.119C277.307 584.592 276.196 582.302 274.911 579.248L270.38 568.316C262.355 552.364 256.417 535.636 252.567 518.132C252.832 517.941 253.093 517.75 253.348 517.559C247.078 482.14 247.026 446.307 253.192 410.06C259.616 372.336 272.255 337.249 291.109 304.799C309.999 272.385 334.27 244.048 363.923 219.789C393.576 195.53 426.164 177.379 461.685 165.337C492.797 154.752 527.52 148.539 565.854 146.7C566.548 148.335 567.676 150.001 569.239 151.698C546.039 162.118 524.389 177.493 504.29 197.821C483.63 218.713 465.487 243.892 449.862 273.356C430.903 309.103 417.292 347.053 409.028 387.207C400.764 427.326 398.281 467.549 401.58 507.877C401.927 512.215 402.761 515.789 404.08 518.6C405.781 522.279 408.212 524.396 411.372 524.951C413.907 525.403 416.337 524.726 418.664 522.921C420.851 521.221 422.379 519.034 423.247 516.362C423.976 514.141 424.306 511.521 424.237 508.501C424.167 507.078 423.907 504.406 423.455 500.484C422.568 493.1 422.012 485.43 421.789 477.475C421.806 476.413 421.823 475.337 421.841 474.247C421.98 466.577 422.57 456.947 423.612 445.355C425.452 424.914 427.761 406.885 430.539 391.267C430.643 390.687 430.747 390.097 430.851 389.497C436.804 361.311 445.242 334.692 456.164 309.641C458.373 304.566 460.664 299.586 463.039 294.7C474.737 272.556 489.512 250.379 507.363 228.17C514.121 219.803 520.684 212.307 527.051 205.681C546.975 186.873 567.479 174.345 588.562 168.096C590.463 167.534 592.182 166.961 593.719 166.378C598.851 167.788 603.99 168.309 609.136 167.94C616.184 167.454 622.712 165.285 628.719 161.432C634.206 157.892 638.424 153.485 641.376 148.21C670.022 150.639 696.29 155.012 720.179 161.328C735.284 165.354 749.537 170.178 762.94 175.8ZM710.283 677.324C722.089 680.309 731.065 682.461 737.211 683.78C747.211 685.897 756.291 687.354 764.451 688.152C779.555 689.61 794.694 689.159 809.868 686.799C819.26 685.36 828.41 683.225 837.317 680.396C842.32 678.806 847.234 677.002 852.057 674.982C852.571 674.776 853.075 674.568 853.567 674.357C859.505 671.824 864.366 669.256 868.151 666.653C869.6 665.66 870.937 664.619 872.161 663.529C873.23 665.478 874.115 667.369 874.817 669.203C874.816 669.25 874.816 669.284 874.817 669.308C875.304 675.312 874.436 681.107 872.213 686.695C870.026 692.074 866.744 696.933 862.369 701.271C858.133 705.401 853.255 708.681 847.734 711.11C843.22 713.123 840.945 714.129 840.911 714.129C838.411 715.413 836.553 716.906 835.338 718.606C834.261 720.168 833.619 721.903 833.41 723.812C833.202 725.755 833.48 727.56 834.244 729.226C835.008 730.961 836.171 732.402 837.733 733.547C839.296 734.692 840.997 735.369 842.838 735.577C844.4 735.785 846.119 735.646 847.994 735.161C849.314 734.814 850.98 734.206 852.994 733.339C861.675 729.556 868.758 725.2 874.244 720.272C877.022 717.704 879.904 714.528 882.891 710.746C886.085 706.65 888.602 702.746 890.443 699.033C895.004 690.17 897.052 680.592 896.589 670.297C896.818 670.104 897.044 669.913 897.266 669.724C899.349 667.954 902.092 665.993 905.495 663.842C910.46 660.787 915.339 658.063 920.131 655.669C924.02 653.69 927.735 652.059 931.277 650.775C935.374 649.283 938.933 648.519 941.954 648.485C942.787 648.485 944.02 648.519 945.652 648.589C946.185 648.576 946.689 648.541 947.162 648.485C947.302 649.012 947.423 649.498 947.527 649.942C947.84 651.261 948.204 653.274 948.621 655.981C949.003 658.688 949.35 660.701 949.662 662.019C950.371 665.023 951.413 667.487 952.788 669.412C954.392 682.875 955.451 696.34 955.965 709.809C955.955 711.817 955.937 713.847 955.913 715.899C955.739 731.031 955.149 744.271 954.142 755.619C952.857 769.848 950.791 782.915 947.944 794.819C942.909 815.781 934.905 835.684 923.933 854.529C918.264 864.253 911.961 873.415 905.026 882.015C904.973 882.034 904.904 882.034 904.818 882.015L897.266 891.074C892.821 896.349 889.401 900.236 887.005 902.734C883.012 906.899 879.123 910.3 875.338 912.938C875.17 913.059 874.996 913.18 874.817 913.302C874.637 912.95 874.411 912.62 874.14 912.313C866.441 917.684 858.802 922.334 851.223 926.265C845.807 929.076 839.556 931.939 832.473 934.854C828.306 936.555 821.882 939.036 813.202 942.298L793.149 949.743C788.496 951.408 784.92 952.346 782.42 952.554C781.782 952.616 781.157 952.651 780.545 952.658C772.248 955.09 763.672 957.085 754.815 958.644C739.973 961.261 724.209 962.701 707.523 962.965C655.213 956.238 609.397 941.87 570.073 919.861C545.662 906.222 524.134 889.755 505.488 870.459C485.9 850.152 470.726 827.941 459.966 803.825C458.909 802.263 457.798 800.441 456.633 798.359C453.602 792.969 451.293 788.18 449.706 783.991C446.332 784.823 441.697 785.725 435.799 786.698C425.521 788.398 417.639 789.578 412.153 790.238C403.403 791.279 395.469 791.782 388.351 791.747C384.566 791.713 381.371 791.452 378.767 790.966C375.33 790.307 372.395 789.179 369.965 787.583C369.622 787.356 369.275 787.096 368.923 786.802C355.017 781.858 342.985 774.049 332.829 763.376C322.447 752.444 314.686 739.343 309.547 724.072C304.617 709.461 302.568 694.278 303.401 678.522C304.026 667.208 306.196 657.89 309.912 650.567C313.974 642.619 321.006 634.88 331.006 627.349C341.284 619.61 352.465 613.346 364.548 608.556C376.666 603.767 389.115 600.661 401.893 599.238C406.025 598.787 409.566 598.665 412.518 598.873C416.407 599.186 419.757 600.106 422.57 601.633C423.959 602.396 425.643 603.576 427.622 605.173C430.087 607.151 431.719 608.417 432.518 608.973C433.159 609.4 433.784 609.782 434.393 610.118C436.06 613.452 438.265 617.304 441.008 621.675C441.115 621.574 441.219 621.469 441.32 621.362C443.08 624.656 444.955 628.04 446.945 631.514C450.522 637.761 456.13 647.096 463.769 659.521L501.686 721.105C502.415 721.457 503.161 721.838 503.926 722.25C508.474 724.749 511.964 726.068 514.394 726.207C517.658 726.38 521.131 725.304 524.811 722.979C526.684 721.751 528.281 720.432 529.603 719.023L530.593 702.312C531.843 682.322 533.093 667.364 534.343 657.438C535.523 647.999 537.503 636.112 540.28 621.779C540.32 621.571 540.355 621.363 540.385 621.154C542.307 622.128 544.199 623.135 546.062 624.174C546.129 624.011 546.198 623.837 546.27 623.653C553.226 626.114 560.067 628.456 566.791 630.681C585.476 639.63 606.622 647.855 630.23 655.356C648.112 661.048 674.797 668.371 710.283 677.324ZM927.839 536.196C927.897 536.212 927.949 536.229 927.995 536.248C927.958 536.264 927.923 536.281 927.891 536.3C927.807 536.352 927.72 536.404 927.631 536.456C927.711 536.37 927.781 536.283 927.839 536.196ZM451.06 589.972C451.085 590 451.102 590.017 451.112 590.024C451.143 590.126 451.16 590.23 451.164 590.336C451.135 590.219 451.1 590.097 451.06 589.972ZM517.259 628.598C517.237 628.724 517.203 628.846 517.155 628.963C517.117 628.695 517.083 628.452 517.051 628.234C517.144 628.219 517.23 628.201 517.311 628.182C517.3 628.321 517.282 628.46 517.259 628.598ZM885.599 788.676C887.092 784.511 887.127 780.728 885.703 777.327C884.661 774.829 882.89 772.868 880.39 771.445C880.115 771.292 879.837 771.153 879.557 771.028C879.406 770.882 879.25 770.744 879.088 770.612C877.665 769.432 875.859 768.512 873.672 767.853C872.109 767.367 870.095 766.968 867.63 766.656C853.359 764.816 837.126 765.857 818.931 769.779C812.021 771.271 804.122 773.319 795.233 775.922C792.663 776.685 784.851 779.097 771.795 783.158C770.38 783.588 769.078 784.004 767.888 784.407C764.158 786.761 760.46 789.347 756.795 792.164C756.737 792.301 756.668 792.422 756.586 792.528C756.31 792.71 756.015 792.883 755.701 793.049C751.268 796.57 746.91 800.457 742.628 804.71C735.718 811.616 728.947 819.581 722.315 828.604C716.794 836.101 711.012 844.846 704.971 854.841C702.002 859.723 699.849 863.783 698.512 867.023C698.572 871.295 699.319 874.853 700.752 877.695C701.621 879.37 702.715 880.793 704.033 881.963C704.034 882.223 704.034 882.466 704.033 882.692L711.429 887.013C714.242 888.644 716.429 889.789 717.992 890.449C720.492 891.49 722.836 892.028 725.023 892.063C725.368 892.063 726.202 892.028 727.523 891.958C748.843 884.809 765.25 879.673 776.743 876.549C786.529 873.892 795.869 871.723 804.764 870.042C805.862 870.117 806.973 869.978 808.097 869.626C808.441 869.531 808.771 869.41 809.087 869.261C811.53 868.871 813.926 868.507 816.275 868.168C817.106 868.415 817.974 868.553 818.879 868.585C820.893 868.689 822.733 868.272 824.4 867.335C824.531 867.264 824.653 867.177 824.764 867.075C825.327 867.039 825.882 866.987 826.431 866.919C826.945 866.073 827.535 865.153 828.202 864.16C831.084 859.787 833.376 856.472 835.077 854.217C836.98 851.672 838.873 849.416 840.754 847.449C840.679 847.38 840.593 847.311 840.494 847.241C845.403 840.703 850.785 833.849 856.64 826.678C859.071 823.659 862.786 819.199 867.786 813.299C870.529 810.106 872.56 807.712 873.88 806.115C876.206 803.339 878.168 800.875 879.765 798.723C882.647 794.871 884.592 791.522 885.599 788.676ZM860.598 788.468C860.476 788.696 860.337 788.921 860.182 789.144C859.661 789.908 858.845 790.88 857.734 792.06C853.484 796.79 849.3 801.579 845.182 806.428C844.8 805.979 844.366 805.562 843.879 805.178C841.9 803.582 838.758 802.454 834.452 801.794C826.848 800.615 818.15 799.903 808.358 799.66C803.566 799.487 800.459 799.348 799.035 799.244C797.546 799.055 796.296 798.898 795.285 798.775C795.657 798.654 796.021 798.533 796.379 798.411C805.025 795.6 812.594 793.431 819.087 791.904C834.359 788.33 848.196 787.185 860.598 788.468ZM727.94 846.72C731.69 841.653 734.832 837.628 737.367 834.643C739.599 832.005 741.804 829.61 743.982 827.459C745.58 828.002 747.403 828.332 749.451 828.448L759.399 828.344C763.357 828.275 766.569 828.726 769.034 829.697C771.291 830.6 773.843 832.283 776.691 834.747C782.707 839.959 787.082 845.442 789.816 851.197C785.923 852.035 782.173 852.885 778.566 853.748C762.732 857.566 748.201 861.973 734.971 866.971C732.992 867.734 731.603 868.22 730.805 868.428C729.207 868.88 727.749 869.07 726.429 869.001C725.631 868.966 724.433 868.758 722.836 868.376C722.134 868.205 721.509 868.066 720.961 867.96C720.76 867.284 720.621 866.763 720.544 866.398C719.988 863.24 720.527 859.804 722.159 856.091C723.304 853.557 725.232 850.434 727.94 846.72ZM329.808 652.961L329.756 651.92C329.617 651.4 329.409 651.001 329.131 650.723V654.315C329.352 653.872 329.577 653.421 329.808 652.961ZM390.382 634.637C385.208 634.047 380.156 634.359 375.225 635.574C362.899 638.628 351.44 647.131 340.85 661.082C336.544 666.774 332.742 672.743 329.443 678.99C328.471 680.934 327.777 682.513 327.36 683.728C326.735 685.567 326.475 687.25 326.579 688.777C326.752 691.345 327.898 693.584 330.016 695.493C332.134 697.401 334.496 698.304 337.1 698.2C340.607 698.061 343.819 696.291 346.735 692.89C347.812 691.675 348.888 690.148 349.965 688.309C350.381 687.58 351.284 685.897 352.673 683.259C357.465 674.166 362.621 667.486 368.142 663.217C371.684 660.51 375.503 658.618 379.6 657.543C384.045 656.432 388.229 656.432 392.153 657.543C396.354 658.792 400.972 661.759 406.007 666.444C407.176 667.548 408.304 668.676 409.393 669.828C406.741 670.954 404.293 672.411 402.049 674.201C399.34 676.422 396.372 679.615 393.142 683.78C390.538 687.111 388.715 689.818 387.674 691.901C386.632 693.948 385.434 697.228 384.08 701.74C382.587 706.668 381.91 710.503 382.048 713.244C382.118 714.841 382.569 717.201 383.403 720.324C384.653 725.252 386.007 728.966 387.465 731.465C388.924 733.963 391.076 736.584 393.924 739.325C397.882 743.108 402.066 746.023 406.476 748.071C411.441 750.396 416.337 751.472 421.164 751.298C426.06 751.125 429.758 749.667 432.258 746.926C433.542 745.537 434.393 743.889 434.81 741.98C435.226 740.071 435.14 738.215 434.549 736.41C433.994 734.64 432.987 733.096 431.528 731.777C430.07 730.458 428.421 729.608 426.58 729.226C425.678 729.018 424.445 728.914 422.882 728.914C420.973 728.914 419.723 728.879 419.132 728.81C415.452 728.497 412.275 727.109 409.601 724.645C407.031 722.285 405.365 719.266 404.601 715.587C403.837 711.978 404.08 708.49 405.33 705.123C406.372 702.347 408.49 699.067 411.684 695.284C413.004 693.723 414.15 692.56 415.122 691.796C416.546 690.651 417.987 689.975 419.445 689.766C420.209 689.662 421.303 689.697 422.726 689.87C423.299 689.934 423.802 689.986 424.237 690.027C426.407 693.977 428.3 698.107 429.914 702.416C431.094 705.609 431.945 707.691 432.466 708.663C433.612 710.954 434.966 712.672 436.529 713.817C438.994 715.656 441.876 716.177 445.175 715.379C448.473 714.58 450.8 712.811 452.154 710.069C453.404 707.57 453.664 704.603 452.935 701.167C452.414 698.842 451.303 695.874 449.602 692.265C446.303 685.324 443.49 679.823 441.164 675.763C437.761 669.863 434.254 664.796 430.643 660.562C428.143 657.647 425.001 654.454 421.216 650.983C414.966 645.257 409.549 641.248 404.966 638.958C400.417 636.667 395.556 635.227 390.382 634.637ZM794.399 315.836C798.913 315.836 802.143 314.447 804.087 311.671C805.615 309.519 806.032 306.951 805.337 303.966C804.677 301.155 803.254 298.83 801.066 296.991C799.156 295.394 796.778 294.145 793.931 293.243C791.743 292.583 789.035 292.063 785.805 291.681C766.638 289.425 746.204 291.924 724.502 299.177C707.071 304.973 688.078 314.135 667.522 326.664C631.237 348.805 595.299 376.761 559.708 410.529C530.367 438.362 499.394 472.044 466.79 511.573C464.845 513.933 463.421 515.807 462.519 517.195C461.06 519.381 460.071 521.498 459.55 523.546C458.925 525.941 458.942 528.283 459.602 530.574C460.331 533.038 461.651 534.86 463.56 536.04C465.227 537.081 467.171 537.497 469.394 537.289C471.408 537.081 473.335 536.404 475.175 535.259C476.703 534.322 478.231 533.003 479.758 531.303C480.696 530.296 481.998 528.7 483.665 526.513C519.013 480.494 558.597 438.64 602.417 400.95C622.313 383.84 641.272 369.299 659.293 357.326C680.439 343.201 701.377 331.869 722.106 323.332C733.148 318.786 743.044 315.679 751.794 314.014C762.906 311.931 773.097 311.914 782.368 313.962C787.958 315.211 791.969 315.836 794.399 315.836Z"
    fill="#222730" />
</svg>