<svg width="1318" height="1042" viewBox="0 0 1318 1042" fill="none" xmlns="http://www.w3.org/2000/svg">
<g clip-path="url(#clip0_389_334)">
<rect width="1318" height="1042" rx="40" fill="white"/>
<path d="M198.561 815.406L-368.734 1122L-341.734 1465L306.955 944.237L198.561 815.406Z" fill="#222730"/>
<ellipse cx="248.859" cy="882.356" rx="85.5" ry="83.5" transform="rotate(3.23944 248.859 882.356)" fill="#222730"/>
<path d="M1168.45 753.57L1675.66 946.822L1708.1 1250.39L1081.05 896.109L1168.45 753.57Z" fill="#222730"/>
<ellipse cx="84.2397" cy="83.5" rx="84.2397" ry="83.5" transform="matrix(-0.980355 0.197243 0.197243 0.980355 1195.03 728.332)" fill="#222730"/>
<path d="M395.572 76.7109C408.72 89.6403 429.434 116.575 404.66 149.698C390.581 168.522 374.381 184.336 369.647 184.336C363.546 205.781 345.941 248.917 330.588 265.272C315.235 281.627 313.139 304.268 314.011 313.544C313.238 345.218 310.389 396.037 303.381 427.716C309.642 408.969 318.28 389.664 326.84 359.279C341.932 305.712 373.406 273.324 405.179 264.411C430.597 257.28 507.562 216.145 544.869 194.254C548.541 206.726 550.807 226.128 532.39 246.571C525.425 254.302 503.881 265.273 499.311 264.73C492.178 276.944 478.921 291.254 455.448 305.317C431.974 319.38 404.533 320.061 404.087 327.95C395.96 360.982 398.368 401.573 367.881 450.216C394.381 419.52 425.349 398.881 444.282 392.324C467.947 384.127 509.094 405.218 526.608 419.519C544.122 433.82 612.791 453.026 628.719 454.27C644.318 455.488 640.198 475.188 626.004 479.934C642.058 481.598 651.868 491.664 643.657 492.751C635.245 493.865 620.456 522.35 609.024 538.366C609.185 552.516 599.788 589.016 553.095 632.858C506.401 676.699 495.519 683.432 481.069 684.37C472.206 763.413 347.349 917.792 308.789 941.045C277.875 959.687 220.582 855.834 167.195 841.384L167.628 841.107C191.126 826.048 276.541 771.31 243.449 670.921C211.823 574.981 161.585 375.519 154.714 347.327C147.676 318.445 182.329 211.232 181.887 130.578C190.971 131.092 206.635 130.302 212.975 165.39C223.767 225.118 215.759 216.302 212.104 224.251C212.357 243.049 214.673 285.679 204.131 321.641L204.182 321.746C210.902 335.743 231.894 379.473 230.381 397.717C228.486 420.576 246.188 253.294 307.763 183.913C355.701 129.899 389.939 91.2721 395.572 76.7109ZM541.328 483.487C436.412 442.394 478.911 434.894 430.539 487.248C410.642 508.783 399.553 528.787 396.494 543.925C394.047 556.035 410.717 570.248 419.358 575.84C428.797 583.426 458.372 592.25 471.979 595.714C479.412 585.894 501.387 588.298 515.707 578.127C530.027 567.955 537.468 549.088 547.124 544.531C546.539 536.688 550.258 495.773 609.581 484.464C589.671 487.833 570.224 490.172 541.328 483.487Z" fill="#222730" stroke="#222730" stroke-width="2"/>
<path d="M870.843 50C859.858 64.6197 843.485 94.1504 872.367 123.5C888.781 140.179 900.414 148.392 911.453 152.93C920.457 173.31 943.772 213.565 961.077 227.624C978.382 241.683 983.649 263.801 984.119 273.103C989.381 304.346 1000.99 362.96 1012.33 393.344C1003.56 375.657 990.79 349.036 978.114 320.149C955.766 269.221 920.453 241.529 888.189 237.111C862.378 233.576 781.444 203.531 741.934 187.036C740.128 199.89 740.679 219.408 761.554 237.088C769.449 243.774 795.349 254.865 796.408 250.477C805.105 261.577 820.074 273.902 844.975 284.567C869.876 295.232 896.741 292.102 898.3 299.849C910.93 331.416 917.428 380.88 954.092 424.799C926.328 402.018 887.655 373.003 868.253 369.137C844 364.304 806.864 390.884 791.814 407.467C776.765 424.049 712.512 452.577 697.151 456.016C686.513 458.398 684.261 473.009 690.68 479.376C681.832 481.689 685.144 493.89 691.414 497.892C714.914 512.892 714.903 522.255 728.334 536.523C730.192 550.55 747.682 581.303 796.344 622.294C846.914 664.892 859.914 673.892 876.914 676.892C896.811 753.898 1037.61 875.791 1078.54 893.461C1111.35 907.627 1152.45 796.894 1202.47 775.191L1202.01 774.976C1176.95 763.329 1085.83 720.992 1103.82 617.042C1121.02 517.699 1141.63 313.314 1144.32 284.458C1147.08 254.895 1098.01 153.583 1086.96 73.6929C1078.17 75.461 1061.59 76.8207 1061.59 112.459C1061.59 157.892 1066.12 163.235 1070.82 170.597C1073.25 189.237 1077.06 231.753 1092.46 265.885C1087.93 280.55 1080.11 316.782 1084.19 334.674C1089.3 357.039 1041.7 204.069 971.761 143.933C917.309 97.1171 878.411 63.6313 870.843 50ZM786.56 472.818C866.409 423.568 851.566 419.37 895.17 461.183C916.23 481.377 931.311 498.002 936.45 512.561C940.562 524.208 926.323 540.586 918.69 547.32C910.562 556.136 882.968 568.97 870.187 574.285C857.414 562.939 840.444 571.02 825.026 562.938C809.609 554.856 799.664 537.213 789.595 534.042C789.058 526.321 764.158 487.847 733.503 484.61C732.15 484.559 730.792 484.484 729.414 484.393C730.787 484.393 732.151 484.467 733.503 484.61C746.875 485.11 759.743 483.278 786.56 472.818Z" fill="#222730"/>
<path d="M733.503 484.61C764.158 487.847 789.058 526.321 789.595 534.042C799.664 537.213 809.609 554.856 825.026 562.938C840.444 571.02 857.414 562.939 870.187 574.285C882.968 568.97 910.562 556.136 918.69 547.32C926.323 540.586 940.562 524.208 936.45 512.561C931.311 498.002 916.23 481.377 895.17 461.183C851.566 419.37 866.409 423.568 786.56 472.818C759.743 483.278 746.875 485.11 733.503 484.61ZM733.503 484.61C732.15 484.559 730.792 484.484 729.414 484.393C730.787 484.393 732.151 484.467 733.503 484.61ZM870.843 50C859.858 64.6197 843.485 94.1504 872.367 123.5C888.781 140.179 900.414 148.392 911.453 152.93C920.457 173.31 943.772 213.565 961.077 227.624C978.382 241.683 983.649 263.801 984.119 273.103C989.381 304.346 1000.99 362.96 1012.33 393.344C1003.56 375.657 990.79 349.036 978.114 320.149C955.766 269.221 920.453 241.529 888.189 237.111C862.378 233.576 781.444 203.531 741.934 187.036C740.128 199.89 740.679 219.408 761.554 237.088C769.449 243.774 795.349 254.865 796.408 250.477C805.105 261.577 820.074 273.902 844.975 284.567C869.876 295.232 896.741 292.102 898.3 299.849C910.93 331.416 917.428 380.88 954.092 424.799C926.328 402.018 887.655 373.003 868.253 369.137C844 364.304 806.864 390.884 791.814 407.467C776.765 424.049 712.512 452.577 697.151 456.016C686.513 458.398 684.261 473.009 690.68 479.376C681.832 481.689 685.144 493.89 691.414 497.892C714.914 512.892 714.903 522.255 728.334 536.523C730.192 550.55 747.682 581.303 796.344 622.294C846.914 664.892 859.914 673.892 876.914 676.892C896.811 753.898 1037.61 875.791 1078.54 893.461C1111.35 907.627 1152.45 796.894 1202.47 775.191L1202.01 774.976C1176.95 763.329 1085.83 720.992 1103.82 617.042C1121.02 517.699 1141.63 313.314 1144.32 284.458C1147.08 254.895 1098.01 153.583 1086.96 73.6929C1078.17 75.461 1061.59 76.8207 1061.59 112.459C1061.59 157.892 1066.12 163.235 1070.82 170.597C1073.25 189.237 1077.06 231.753 1092.46 265.885C1087.93 280.55 1080.11 316.782 1084.19 334.674C1089.3 357.039 1041.7 204.069 971.761 143.933C917.309 97.1171 878.411 63.6313 870.843 50Z" stroke="#222730" stroke-width="2"/>
<mask id="mask0_389_334" style="mask-type:luminance" maskUnits="userSpaceOnUse" x="396" y="450" width="219" height="146">
<path d="M419.359 575.841C410.717 570.248 394.047 556.035 396.495 543.925C399.554 528.787 410.643 508.783 430.54 487.248C478.912 434.894 436.412 442.394 541.329 483.487C570.224 490.173 589.671 487.833 609.582 484.464C611.221 484.152 612.903 483.862 614.629 483.596C612.939 483.889 611.259 484.18 609.582 484.464C550.259 495.773 546.54 536.689 547.125 544.531C537.469 549.088 530.028 567.956 515.707 578.127C501.387 588.298 479.412 585.894 471.98 595.714C458.372 592.25 428.797 583.426 419.359 575.841Z" fill="white"/>
</mask>
<g mask="url(#mask0_389_334)">
<path d="M472.796 540.909C499.815 542.438 522.793 524.68 524.12 501.245C525.446 477.811 504.618 457.574 477.599 456.044C450.581 454.515 427.602 472.273 426.276 495.707C424.95 519.142 445.777 539.379 472.796 540.909Z" fill="#222730"/>
<path d="M498.894 487.484C501.655 487.484 503.894 484.35 503.894 480.484C503.894 476.618 501.655 473.484 498.894 473.484C496.132 473.484 493.894 476.618 493.894 480.484C493.894 484.35 496.132 487.484 498.894 487.484Z" fill="white"/>
</g>
<mask id="mask1_389_334" style="mask-type:luminance" maskUnits="userSpaceOnUse" x="729" y="432" width="209" height="143">
<path d="M918.69 547.32C926.323 540.586 940.562 524.208 936.45 512.561C931.311 498.002 916.23 481.377 895.171 461.183C851.566 419.37 866.41 423.569 786.561 472.818C759.743 483.278 746.875 485.11 733.503 484.61C732.15 484.467 730.787 484.393 729.414 484.393C730.792 484.485 732.15 484.559 733.503 484.61C764.158 487.847 789.059 526.322 789.596 534.042C799.664 537.214 809.609 554.857 825.026 562.938C840.444 571.02 857.414 562.938 870.186 574.284C882.968 568.97 910.562 556.136 918.69 547.32Z" fill="white"/>
</mask>
<g mask="url(#mask1_389_334)">
<path d="M829.206 526.024C856.225 527.553 879.203 509.795 880.53 486.361C881.856 462.926 861.028 442.689 834.01 441.16C806.991 439.63 784.013 457.388 782.686 480.823C781.36 504.257 802.188 524.494 829.206 526.024Z" fill="#222730"/>
<path d="M853.893 472.482C856.654 472.482 858.893 469.348 858.893 465.482C858.893 461.616 856.654 458.482 853.893 458.482C851.131 458.482 848.893 461.616 848.893 465.482C848.893 469.348 851.131 472.482 853.893 472.482Z" fill="white"/>
</g>
<path d="M169.911 838.92L-6910.4 4297.76L-11492 8592.76L306.911 942.92L259.911 805.92" fill="#222730"/>
<path d="M1202.91 775.92L8636.24 3391.27L13116.5 7131.07L1072.91 890.92L1149.91 755.92" fill="#222730"/>
</g>
<defs>
<clipPath id="clip0_389_334">
<rect width="1318" height="1042" rx="40" fill="white"/>
</clipPath>
</defs>
</svg>
