<svg xmlns="http://www.w3.org/2000/svg" version="1.1" xmlns:xlink="http://www.w3.org/1999/xlink" width="934" height="934"><svg xmlns="http://www.w3.org/2000/svg" version="1.1" xmlns:xlink="http://www.w3.org/1999/xlink" width="934" height="934"><svg width="934" height="934" viewBox="0 0 934 934" fill="none" xmlns="http://www.w3.org/2000/svg">
<g clip-path="url(#clip0_340_197)">
<rect width="934" height="934" fill="white"></rect>
<rect width="934" height="934" fill="white"></rect>
<path d="M594.587 -307.528C590.989 -308.592 587.063 -309.72 582.81 -310.912C578.38 -312.709 572.735 -314.785 565.874 -317.142C559.1 -319.5 553.968 -321.115 550.478 -321.987C549.436 -322.254 548.05 -322.587 546.322 -322.986C537.025 -326.024 531.816 -327.742 530.695 -328.139C527.564 -329.267 525.717 -329.908 525.152 -330.062C523.048 -330.728 521.149 -331.138 519.456 -331.292C517.687 -331.493 516.044 -331.493 514.529 -331.292C479.149 -339.677 441.404 -345.393 401.293 -348.442C398.525 -350.039 395.599 -350.705 392.517 -350.441C391.076 -350.297 389.587 -349.938 388.052 -349.365C297.699 -354.986 216.435 -346.116 144.26 -322.756C86.5765 -304.042 33.6149 -275.741 -14.6254 -237.853C-63.2249 -199.657 -103.023 -154.847 -134.02 -103.423C-165.325 -51.5891 -186.212 4.62838 -196.681 65.2294C-203.858 106.613 -205.757 147.501 -202.377 187.893C-201.874 189.615 -201.592 191.614 -201.531 193.891C-201.511 194.697 -201.511 195.646 -201.531 196.737C-201.262 199.025 -201.006 201.306 -200.761 203.581C-200.954 204.026 -201.134 204.488 -201.3 204.965C-201.169 206.094 -200.963 207.479 -200.684 209.118C-200.273 211.631 -200.017 213.476 -199.914 214.655C-199.658 216.911 -199.529 220.346 -199.529 224.961C-199.499 225.602 -199.447 226.32 -199.375 227.114C-196.515 239.437 -193.82 250.127 -191.292 259.183C-187.392 273.026 -183.158 285.613 -178.591 296.944C-174.926 305.974 -170.82 314.767 -166.274 323.322C-166.345 324.813 -166.191 326.275 -165.812 327.706C-165.402 329.295 -164.683 331.064 -163.657 333.012C-163.041 334.191 -162.066 335.883 -160.732 338.088C-159.911 339.575 -158.705 342.087 -157.114 345.624C-155.625 348.906 -154.368 351.392 -153.342 353.084C-151.956 355.34 -150.006 358.057 -147.491 361.236C-143.796 365.748 -141.692 368.363 -141.179 369.08C-139.793 370.977 -137.766 373.797 -135.098 377.54C-132.942 380.309 -129.914 383.564 -126.014 387.307C-119.958 393.049 -116.751 396.125 -116.392 396.535C-115.006 397.971 -112.953 400.15 -110.233 403.072C-108.206 405.097 -106.308 406.764 -104.537 408.071C-109.389 416.178 -113.161 424.535 -115.853 433.142C-119.343 444.268 -121.267 456.521 -121.626 469.903C-121.883 481.131 -121.062 493.589 -119.163 507.278C-116.187 528.35 -111.593 546.577 -105.384 561.958C-97.7885 580.876 -86.9601 598.026 -72.8986 613.407C-58.837 628.839 -42.7484 641.221 -24.6327 650.552C-6.46561 659.883 12.9588 665.805 33.6405 668.317C44.94 669.662 56.102 669.918 67.1265 669.086C67.7918 668.353 68.459 667.61 69.1279 666.856C81.4426 666.167 94.2724 663.885 107.618 660.011C107.807 659.957 107.987 659.906 108.156 659.858C108.902 661.867 109.928 664.276 111.235 667.087C128.787 706.001 153.42 741.812 185.135 774.523C215.26 805.644 250.003 832.176 289.365 854.119C318.934 870.617 350.803 884.383 384.973 895.417C391.055 898.66 396.52 901.402 401.37 903.646C446.061 912.622 487.424 917.39 525.46 917.95C570.159 918.566 611.42 913.464 649.243 902.646C653.605 901.416 660.122 899.57 668.795 897.109C672.513 896.174 676.002 895.431 679.264 894.879C679.383 894.867 679.486 894.842 679.572 894.802C709.851 880.908 733.304 868.629 749.931 857.965C755.47 854.399 760.73 850.734 765.712 846.967C766.463 846.929 767.207 846.8 767.944 846.583C769.024 845.84 769.999 845.148 770.87 844.506C776.675 840.27 782.089 836.501 787.112 833.201C804.827 814.694 819.659 797.749 831.606 782.367C846.899 762.577 859.293 743.094 868.787 723.919C879.308 702.591 887.698 678.904 893.959 652.859C898.273 634.799 901.635 615.214 904.044 594.104C904.147 593.966 904.25 593.812 904.351 593.643C905.788 591.335 906.789 588.541 907.354 585.26C907.713 583.055 907.97 580.005 908.123 576.108C911.246 500.496 903.137 423.591 883.798 345.394C883.807 343.637 883.884 341.919 884.029 340.241C881.228 323.486 879.381 309.823 878.487 299.251C877.101 283.511 877.101 269.207 878.487 256.338C879.513 248.391 880.257 242.444 880.719 238.496C881.489 231.523 881.694 225.576 881.335 220.654C881.244 219.49 881.116 218.362 880.95 217.27C881.166 217.175 881.371 217.073 881.566 216.963L881.643 216.347C881.681 216.167 881.707 215.962 881.72 215.732C882.01 215.465 882.292 215.183 882.566 214.886C886.261 210.836 891.983 204.991 899.733 197.352C907.841 189.251 914.487 183.33 919.67 179.587C927.957 173.705 936.912 169.476 946.536 166.898C949.13 167.303 951.388 167.893 953.31 168.666C954.714 169.263 955.997 169.955 957.159 170.743C969.585 173.704 984.904 176.729 1003.12 179.818C1031.6 184.637 1051.3 188.328 1062.24 190.892C1067.32 192.071 1074.94 193.917 1085.1 196.429C1093.98 198.429 1101.7 199.659 1108.27 200.12C1110.07 200.256 1111.76 200.307 1113.35 200.274C1116.39 202.596 1119.63 203.621 1123.05 203.35C1126.59 203.043 1129.7 201.351 1132.36 198.275C1134.83 195.352 1136.29 191.969 1136.75 188.123C1137.18 184.402 1136.61 180.173 1135.06 175.434C1137.87 170.059 1138.67 162.523 1137.44 152.824C1135.75 139.186 1132.52 127.035 1127.74 116.371C1122.48 104.688 1115.55 95.2799 1106.96 88.147C1105.88 86.2498 1104.55 84.3528 1102.96 82.456C1099.26 78.0981 1093.9 73.5607 1086.87 68.8439C1063.98 53.3604 1037.58 38.9022 1007.66 25.4695C985.282 15.4206 957.108 4.34636 923.134 -7.75334C884.747 -21.0322 856.034 -31.158 836.995 -38.1308C819.998 -44.3464 804.294 -50.4476 789.883 -56.4341C789.945 -59.0816 789.612 -61.9526 788.883 -65.0474C788.37 -67.3546 787.446 -70.5077 786.112 -74.5068L771.178 -119.65C769.741 -124.059 768.432 -127.392 767.252 -129.648C765.455 -133.185 763.274 -135.877 760.708 -137.723C760.364 -137.971 760.005 -138.201 759.631 -138.415C746.922 -163.58 731.577 -187.19 713.597 -209.244C695.173 -231.854 674.543 -252.106 651.706 -269.999C634.076 -283.825 615.037 -296.335 594.587 -307.528ZM589.584 -272.998V-273.075C594.885 -269.91 600.068 -266.654 605.134 -263.308C631.768 -245.723 655.786 -224.881 677.186 -200.784C698.586 -176.688 716.445 -150.412 730.764 -121.957C732.278 -118.953 733.843 -116.261 735.459 -113.882C736.415 -111.299 738.186 -107.274 740.771 -101.808C744.973 -92.8185 748.155 -83.6156 750.316 -74.1991C747.251 -75.6515 744.864 -76.7025 743.157 -77.3522C739.462 -78.7365 736.075 -79.5056 732.996 -79.6594C729.301 -79.8644 725.863 -79.1723 722.681 -77.583C721.019 -76.7528 719.608 -75.7787 718.447 -74.6606C718.066 -73.488 717.604 -72.3344 717.061 -71.1998C716.404 -69.857 715.66 -68.6009 714.829 -67.4315C714.572 -65.4336 714.751 -63.3571 715.368 -61.2022C716.24 -58.1773 717.78 -55.46 719.986 -53.0503C721.885 -50.9995 724.323 -49.0769 727.299 -47.2824C729.25 -46.1545 732.072 -44.7446 735.767 -43.0527C755.884 -33.8241 779.209 -24.2879 805.741 -14.4441C818.725 -9.6247 842.512 -1.19083 877.101 10.8576C938.838 32.391 985.641 51.0276 1017.51 66.7675C1032.86 74.4067 1045.81 81.6613 1056.39 88.5315C1059.46 90.5823 1061.83 92.2999 1063.47 93.6842C1065.88 95.735 1067.8 97.837 1069.24 99.9904C1070.06 101.272 1071.34 103.861 1073.09 107.758C1073.75 109.208 1074.39 110.49 1075.01 111.603C1070.81 109.519 1066.48 107.647 1062 105.989C1047.43 100.554 1032.03 97.6832 1015.82 97.3756C1000.01 97.068 984.435 99.1957 969.091 103.759C944.098 111.244 919.157 125.548 894.267 146.672C878.512 160.053 857.856 181.099 832.299 209.811L747.006 305.634C728.531 326.398 713.623 341.677 702.281 351.469C684.371 366.901 666.46 377.643 648.55 383.692C648.439 383.726 648.311 383.752 648.165 383.769C646.141 383.306 643.909 382.999 641.468 382.846C639.004 382.693 635.309 382.718 630.383 382.923C591.688 384.256 548.913 381.924 502.059 375.925C469.419 371.67 427.03 364.389 374.889 354.084C315.352 342.342 264.058 331.14 221.008 320.477C221.181 320.953 221.335 321.414 221.47 321.861C180.01 310.088 141.443 297.322 105.77 283.562C104.464 284.565 102.821 285.719 100.843 287.023C78.0575 302.148 55.4769 313.709 33.1017 321.707C27.9697 323.502 24.1208 324.834 21.5548 325.706C17.0387 327.295 13.2667 328.757 10.2389 330.09C5.26092 332.294 2.61793 333.448 2.31001 333.55C-0.717833 334.73 -3.46338 335.345 -5.92672 335.396C-6.56721 335.415 -7.2087 335.39 -7.85119 335.319C-30.5777 343.966 -49.7455 354.092 -65.3546 365.697C-72.0426 370.686 -78.2009 375.993 -83.8296 381.616C-86.8061 379.616 -89.0129 378.104 -90.4498 377.079C-93.7856 374.72 -97.1983 371.644 -100.688 367.85C-102.69 365.697 -105.692 362.185 -109.695 357.314C-114.108 351.879 -117.418 347.675 -119.625 344.702C-122.271 341.047 -124.555 337.561 -126.476 334.242C-126.399 334.155 -126.348 334.052 -126.322 333.935C-126.465 333.686 -126.619 333.43 -126.784 333.166C-128.17 330.91 -129.812 327.526 -131.711 323.014L-138.408 306.864C-150.269 283.299 -159.044 258.587 -164.735 232.728C-164.342 232.447 -163.957 232.165 -163.58 231.882C-172.848 179.557 -172.925 126.621 -163.811 73.0737C-154.317 17.3433 -135.637 -34.4906 -107.77 -82.428C-79.8524 -130.314 -43.9801 -172.176 -0.153281 -208.014C43.6735 -243.851 91.8367 -270.665 144.337 -288.456C190.319 -304.093 241.638 -313.271 298.295 -315.988C299.321 -313.572 300.989 -311.111 303.298 -308.605C269.008 -293.211 237.011 -270.498 207.305 -240.467C176.77 -209.603 149.956 -172.407 126.862 -128.878C98.8419 -76.0705 78.7246 -20.0069 66.5106 39.3124C54.2966 98.5804 50.6273 158.002 55.5026 217.578C56.0158 223.987 57.2475 229.267 59.1976 233.42C61.7123 238.855 65.3046 241.982 69.9747 242.803C73.721 243.469 77.3134 242.469 80.7518 239.803C83.9849 237.291 86.2429 234.061 87.5259 230.113C88.6036 226.832 89.0912 222.961 88.9885 218.501C88.8859 216.399 88.501 212.451 87.8339 206.657C86.5218 195.748 85.7007 184.417 85.3705 172.665C85.3954 171.096 85.421 169.507 85.4475 167.897C85.6528 156.567 86.5252 142.339 88.0648 125.215C90.7847 95.0172 94.1974 68.3825 98.303 45.311C98.4564 44.4543 98.6103 43.5826 98.7649 42.6962C107.563 1.05605 120.034 -38.268 136.177 -75.2758C139.441 -82.7728 142.828 -90.13 146.338 -97.3475C163.627 -130.061 185.463 -162.823 211.847 -195.632C221.836 -207.993 231.535 -219.067 240.945 -228.855C270.393 -256.64 300.697 -275.148 331.858 -284.38C334.667 -285.21 337.207 -286.056 339.479 -286.918C347.064 -284.834 354.66 -284.065 362.264 -284.611C372.682 -285.329 382.33 -288.533 391.209 -294.224C399.317 -299.453 405.552 -305.965 409.915 -313.758C452.253 -310.169 491.076 -303.709 526.384 -294.378C548.708 -288.43 569.774 -281.304 589.584 -272.998ZM511.758 467.903C529.207 472.312 542.473 475.491 551.556 477.439C566.336 480.567 579.756 482.72 591.816 483.899C614.14 486.053 636.515 485.386 658.942 481.9C672.823 479.774 686.345 476.621 699.51 472.441C706.905 470.092 714.167 467.426 721.295 464.442C722.055 464.138 722.8 463.83 723.527 463.519C732.303 459.777 739.488 455.983 745.082 452.138C747.224 450.671 749.2 449.133 751.009 447.523C752.588 450.402 753.897 453.196 754.935 455.906C754.932 455.974 754.932 456.025 754.935 456.06C755.653 464.929 754.37 473.492 751.086 481.746C747.853 489.693 743.003 496.871 736.537 503.279C730.276 509.38 723.066 514.225 714.906 517.814C708.234 520.788 704.873 522.275 704.822 522.275C701.127 524.172 698.381 526.376 696.585 528.889C694.994 531.196 694.045 533.759 693.737 536.579C693.429 539.45 693.839 542.116 694.968 544.577C696.097 547.141 697.816 549.268 700.126 550.96C702.435 552.652 704.95 553.652 707.67 553.96C709.979 554.267 712.52 554.062 715.291 553.344C717.241 552.832 719.704 551.934 722.681 550.653C735.511 545.064 745.98 538.63 754.088 531.35C758.194 527.556 762.453 522.864 766.867 517.276C771.588 511.226 775.309 505.458 778.029 499.972C784.77 486.88 787.798 472.729 787.112 457.521C787.451 457.236 787.785 456.954 788.113 456.675C791.192 454.06 795.246 451.163 800.276 447.985C807.614 443.473 814.825 439.448 821.907 435.911C827.655 432.988 833.146 430.579 838.38 428.682C844.436 426.477 849.696 425.349 854.161 425.298C855.393 425.298 857.215 425.349 859.627 425.452C860.415 425.432 861.159 425.381 861.859 425.298C862.065 426.077 862.244 426.795 862.398 427.451C862.86 429.399 863.399 432.373 864.014 436.372C864.579 440.371 865.092 443.345 865.554 445.293C866.601 449.731 868.141 453.371 870.173 456.214C872.544 476.102 874.109 495.995 874.868 515.892C874.854 518.859 874.828 521.858 874.791 524.89C874.535 547.243 873.662 566.803 872.174 583.568C870.275 604.589 867.222 623.892 863.014 641.477C855.572 672.444 843.743 701.848 827.526 729.687C819.147 744.053 809.833 757.588 799.583 770.293C799.504 770.321 799.402 770.321 799.275 770.293L788.113 783.674C781.544 791.467 776.489 797.21 772.948 800.901C767.046 807.053 761.299 812.078 755.705 815.974C755.456 816.153 755.199 816.332 754.935 816.513C754.668 815.992 754.334 815.505 753.934 815.052C742.555 822.986 731.265 829.856 720.063 835.662C712.058 839.815 702.82 844.045 692.351 848.351C686.193 850.864 676.699 854.529 663.869 859.349L634.232 870.346C627.355 872.807 622.069 874.191 618.374 874.499C617.431 874.591 616.507 874.642 615.603 874.653C603.34 878.246 590.664 881.194 577.575 883.497C555.638 887.362 532.339 889.489 507.678 889.88C430.366 879.943 362.65 858.717 304.53 826.203C268.453 806.054 236.635 781.726 209.076 753.22C180.125 723.222 157.698 690.409 141.796 654.782C140.233 652.475 138.591 649.784 136.87 646.707C132.389 638.744 128.977 631.669 126.631 625.481C121.645 626.71 114.794 628.043 106.078 629.48C90.8874 631.992 79.2378 633.736 71.1294 634.71C58.1969 636.248 46.4704 636.991 35.9499 636.94C30.3561 636.889 25.6347 636.504 21.7858 635.786C16.7051 634.812 12.3686 633.146 8.77628 630.788C8.2695 630.453 7.75631 630.068 7.2367 629.634C-13.3165 622.331 -31.0987 610.795 -46.1098 595.027C-61.4543 578.877 -72.9242 559.522 -80.5195 536.964C-87.8069 515.379 -90.8347 492.948 -89.603 469.672C-88.6793 452.958 -85.4718 439.192 -79.9806 428.374C-73.9763 416.633 -63.5841 405.2 -48.8041 394.075C-33.6136 382.641 -17.0887 373.387 0.770431 366.312C18.6809 359.237 37.0789 354.648 55.9645 352.546C62.0715 351.879 67.3061 351.7 71.6682 352.007C77.416 352.469 82.3683 353.828 86.5252 356.083C88.578 357.211 91.067 358.955 93.9922 361.313C97.6359 364.235 100.048 366.107 101.228 366.927C102.176 367.559 103.1 368.123 103.999 368.619C106.463 373.544 109.722 379.235 113.776 385.692C113.935 385.542 114.089 385.388 114.238 385.23C116.838 390.097 119.609 395.095 122.551 400.227C127.837 409.455 136.125 423.247 147.416 441.602L203.457 532.58C204.533 533.1 205.637 533.664 206.767 534.272C213.489 537.963 218.647 539.912 222.239 540.117C227.063 540.373 232.195 538.784 237.635 535.349C240.403 533.534 242.764 531.586 244.717 529.504L246.18 504.817C248.027 475.286 249.875 453.189 251.722 438.525C253.467 424.58 256.393 407.02 260.498 385.846C260.557 385.539 260.608 385.231 260.652 384.923C263.493 386.362 266.29 387.849 269.043 389.383C269.142 389.143 269.244 388.887 269.351 388.614C279.632 392.249 289.742 395.71 299.68 398.996C327.296 412.217 358.55 424.368 393.441 435.449C419.87 443.858 459.31 454.675 511.758 467.903ZM833.3 259.414C833.385 259.437 833.462 259.463 833.531 259.491C833.475 259.514 833.424 259.539 833.377 259.568C833.252 259.645 833.123 259.722 832.992 259.799C833.11 259.671 833.213 259.543 833.3 259.414ZM128.633 338.857C128.669 338.898 128.695 338.924 128.71 338.934C128.755 339.085 128.781 339.239 128.787 339.395C128.743 339.222 128.692 339.042 128.633 338.857ZM226.473 395.92C226.441 396.106 226.39 396.286 226.319 396.459C226.264 396.063 226.212 395.704 226.165 395.382C226.303 395.359 226.431 395.333 226.55 395.305C226.533 395.51 226.508 395.716 226.473 395.92ZM770.87 632.403C773.076 626.25 773.128 620.662 771.024 615.637C769.484 611.946 766.867 609.049 763.172 606.947C762.765 606.721 762.354 606.516 761.94 606.332C761.717 606.116 761.486 605.911 761.247 605.717C759.143 603.973 756.475 602.615 753.241 601.641C750.932 600.923 747.956 600.333 744.312 599.872C723.22 597.154 699.228 598.693 672.336 604.486C662.124 606.691 650.449 609.716 637.311 613.561C633.513 614.689 621.966 618.252 602.67 624.251C600.579 624.886 598.655 625.501 596.897 626.096C591.383 629.574 585.918 633.394 580.5 637.555C580.416 637.758 580.313 637.937 580.192 638.093C579.784 638.361 579.348 638.618 578.884 638.863C572.331 644.064 565.891 649.806 559.562 656.089C549.349 666.292 539.342 678.058 529.54 691.389C521.38 702.463 512.836 715.383 503.906 730.149C499.518 737.36 496.337 743.359 494.361 748.144C494.449 754.456 495.552 759.711 497.671 763.91C498.955 766.385 500.572 768.487 502.52 770.216C502.521 770.6 502.521 770.959 502.52 771.293L513.451 777.676C517.608 780.085 520.841 781.777 523.151 782.752C526.846 784.29 530.31 785.084 533.543 785.136C534.053 785.136 535.285 785.084 537.238 784.982C568.748 774.42 592.997 766.832 609.983 762.218C624.447 758.292 638.252 755.088 651.398 752.605C653.02 752.716 654.662 752.511 656.325 751.99C656.833 751.85 657.32 751.671 657.787 751.451C661.398 750.875 664.94 750.337 668.41 749.836C669.639 750.2 670.921 750.405 672.259 750.452C675.236 750.605 677.956 749.99 680.419 748.606C680.614 748.501 680.793 748.373 680.958 748.221C681.789 748.168 682.61 748.091 683.421 747.991C684.181 746.741 685.053 745.382 686.039 743.915C690.298 737.455 693.685 732.558 696.2 729.226C699.012 725.467 701.809 722.134 704.591 719.228C704.48 719.126 704.351 719.024 704.206 718.921C711.461 709.262 719.416 699.137 728.069 688.543C731.662 684.083 737.153 677.494 744.543 668.779C748.597 664.062 751.599 660.524 753.549 658.166C756.988 654.064 759.887 650.424 762.248 647.245C766.508 641.554 769.381 636.607 770.87 632.403ZM733.92 632.095C733.739 632.432 733.534 632.765 733.304 633.095C732.534 634.223 731.328 635.658 729.686 637.401C723.404 644.389 717.22 651.465 711.134 658.627C710.57 657.964 709.929 657.349 709.209 656.781C706.284 654.423 701.64 652.757 695.276 651.783C684.037 650.039 671.182 648.988 656.71 648.629C649.627 648.373 645.034 648.168 642.93 648.014C640.73 647.735 638.882 647.504 637.388 647.322C637.937 647.143 638.476 646.964 639.004 646.784C651.783 642.631 662.971 639.427 672.567 637.171C695.139 631.891 715.59 630.199 733.92 632.095ZM537.854 718.151C543.396 710.666 548.041 704.719 551.787 700.31C555.086 696.412 558.344 692.875 561.563 689.697C563.926 690.499 566.62 690.986 569.646 691.158L584.349 691.004C590.2 690.902 594.947 691.568 598.59 693.004C601.926 694.337 605.698 696.823 609.906 700.463C618.798 708.162 625.264 716.263 629.305 724.765C623.551 726.003 618.009 727.259 612.678 728.534C589.276 734.173 567.799 740.685 548.246 748.067C545.321 749.195 543.268 749.913 542.088 750.221C539.727 750.887 537.572 751.169 535.621 751.067C534.441 751.015 532.671 750.708 530.31 750.144C529.272 749.891 528.349 749.685 527.539 749.529C527.242 748.53 527.036 747.761 526.923 747.221C526.102 742.556 526.897 737.48 529.309 731.994C531.003 728.252 533.851 723.637 537.854 718.151ZM-50.5746 431.912L-50.6516 430.374C-50.8569 429.605 -51.1648 429.015 -51.5754 428.605V433.911C-51.2488 433.257 -50.9152 432.59 -50.5746 431.912ZM38.9521 404.841C31.3055 403.97 23.8385 404.431 16.5512 406.225C-1.66724 410.737 -18.6027 423.298 -34.2551 443.909C-40.6187 452.317 -46.2381 461.135 -51.1135 470.364C-52.5504 473.235 -53.5768 475.568 -54.1926 477.362C-55.1164 480.08 -55.5013 482.566 -55.3473 484.822C-55.0907 488.616 -53.3972 491.923 -50.2667 494.743C-47.1362 497.563 -43.6465 498.896 -39.7975 498.742C-34.6143 498.537 -29.8672 495.922 -25.5564 490.898C-23.9655 489.103 -22.3746 486.847 -20.7837 484.13C-20.1679 483.053 -18.8336 480.567 -16.7808 476.67C-9.69872 463.238 -2.07778 453.368 6.08201 447.062C11.3166 443.063 16.9617 440.269 23.0174 438.679C29.5863 437.039 35.7703 437.039 41.5694 438.679C47.779 440.525 54.6045 444.909 62.0458 451.83C63.7731 453.461 65.4409 455.127 67.0495 456.829C63.1308 458.492 59.5127 460.645 56.1954 463.289C52.1925 466.57 47.8047 471.287 43.032 477.439C39.183 482.361 36.4888 486.36 34.9492 489.436C33.4096 492.461 31.6391 497.306 29.6376 503.971C27.4309 511.252 26.4302 516.917 26.6354 520.967C26.7381 523.326 27.4052 526.812 28.6369 531.426C30.4844 538.707 32.4858 544.193 34.6412 547.884C36.7967 551.576 39.9785 555.446 44.1867 559.497C50.0371 565.085 56.2211 569.392 62.7386 572.417C70.0773 575.852 77.3134 577.441 84.4468 577.185C91.6828 576.929 97.1483 574.775 100.843 570.725C102.742 568.674 103.999 566.239 104.615 563.419C105.231 560.599 105.103 557.856 104.23 555.19C103.409 552.575 101.921 550.294 99.7656 548.346C97.6102 546.397 95.1725 545.141 92.4526 544.577C91.1183 544.27 89.2964 544.116 86.9871 544.116C84.1645 544.116 82.317 544.065 81.4446 543.962C76.0047 543.501 71.309 541.45 67.3574 537.81C63.5597 534.323 61.0964 529.863 59.9674 524.428C58.8384 519.096 59.1976 513.943 61.0451 508.97C62.5847 504.869 65.7152 500.024 70.4365 494.435C72.3867 492.128 74.0803 490.411 75.5172 489.283C77.6213 487.591 79.751 486.591 81.9065 486.283C83.0355 486.13 84.652 486.181 86.7561 486.437C87.6021 486.531 88.3462 486.608 88.9885 486.668C92.1966 492.503 94.9935 498.605 97.3792 504.971C99.1241 509.688 100.381 512.764 101.151 514.2C102.845 517.584 104.846 520.121 107.156 521.813C110.799 524.531 115.059 525.3 119.934 524.121C124.81 522.941 128.248 520.327 130.249 516.276C132.097 512.585 132.482 508.201 131.404 503.125C130.634 499.69 128.992 495.307 126.477 489.975C121.602 479.721 117.445 471.595 114.007 465.596C108.977 456.88 103.794 449.395 98.457 443.14C94.762 438.833 90.1176 434.116 84.5238 428.989C75.2863 420.53 67.2804 414.608 60.5063 411.224C53.7834 407.84 46.5987 405.713 38.9521 404.841ZM636.079 -66.1241C642.751 -66.1241 647.523 -68.1749 650.397 -72.2765C652.655 -75.4553 653.271 -79.2492 652.245 -83.6584C651.27 -87.8113 649.166 -91.2464 645.932 -93.9637C643.11 -96.3221 639.595 -98.1678 635.386 -99.5009C632.153 -100.475 628.15 -101.244 623.378 -101.808C595.049 -105.141 564.848 -101.449 532.773 -90.7337C507.011 -82.1716 478.939 -68.6364 448.558 -50.1279C394.929 -17.4177 341.814 23.8802 289.211 73.7658C245.846 114.884 200.069 164.642 151.881 223.038C149.007 226.524 146.903 229.293 145.568 231.344C143.413 234.574 141.95 237.701 141.18 240.726C140.257 244.264 140.282 247.725 141.257 251.108C142.335 254.749 144.285 257.44 147.108 259.183C149.571 260.721 152.445 261.337 155.729 261.029C158.706 260.722 161.554 259.722 164.274 258.03C166.532 256.646 168.79 254.697 171.048 252.185C172.434 250.698 174.358 248.34 176.822 245.11C229.065 177.126 287.569 115.294 352.334 59.6153C381.74 34.3393 409.761 12.8572 436.395 -4.83096C467.649 -25.6978 498.594 -42.4374 529.232 -55.0498C545.552 -61.7662 560.178 -66.3548 573.11 -68.8158C589.533 -71.892 604.595 -71.9176 618.297 -68.8927C626.559 -67.047 632.487 -66.1241 636.079 -66.1241Z" fill="black"></path>
</g>
<defs>
<clipPath id="clip0_340_197">
<rect width="934" height="934" fill="white"></rect>
</clipPath>
</defs>
</svg></svg><style>@media (prefers-color-scheme: light) { :root { filter: none; } }
@media (prefers-color-scheme: dark) { :root { filter: none; } }
</style></svg>