<svg width="1200" height="628" viewBox="0 0 1200 628" fill="none" xmlns="http://www.w3.org/2000/svg">
<g clip-path="url(#clip0_397_230)">
<rect width="1200" height="628" fill="white"/>
<path d="M403.894 -79.5576C409.391 -74.152 416.555 -65.7403 419.717 -55.1387C422.899 -44.47 421.995 -31.6868 411.532 -17.6982C405.666 -9.8552 399.354 -2.63234 394.004 2.63867C391.331 5.27225 388.88 7.43557 386.833 8.94824C385.811 9.70367 384.869 10.312 384.036 10.7354C383.506 11.0048 382.973 11.2215 382.464 11.3398C379.869 20.2846 375.029 33.4034 369.272 46.0078C363.393 58.8817 356.502 71.3521 350.013 78.2646C337.54 91.5516 335.82 110.007 336.527 117.531L336.533 117.59L336.531 117.649C335.984 140.075 334.179 174.131 330.034 200.032C334.571 187.793 339.896 174.163 345.212 155.294L345.812 153.214C358.615 109.792 384.515 83.3027 410.892 75.9033C421.318 72.9781 442.458 63.0213 464.947 51.4688C487.398 39.936 511.081 26.8734 526.538 17.8037L527.643 17.1562L528.004 18.3838C529.55 23.6363 530.816 30.3996 529.729 38.0273C528.641 45.6688 525.201 54.1144 517.435 62.7354C514.421 66.0798 508.375 70.026 502.696 73.0547C499.839 74.5785 497.032 75.8936 494.687 76.8018C493.515 77.2554 492.442 77.6141 491.526 77.8457C490.922 77.9987 490.336 78.1071 489.814 78.1367C483.729 88.3287 472.645 100.114 453.378 111.657C443.516 117.565 432.834 120.655 424.68 123.067C420.57 124.283 417.162 125.311 414.753 126.429C413.551 126.987 412.667 127.536 412.085 128.092C411.518 128.633 411.283 129.135 411.255 129.633L411.25 129.726L411.228 129.815C405.028 155.013 406.241 186.266 386.009 223.118C406.468 201.543 428.908 187.008 443.272 182.033C453.447 178.509 467.185 181.307 480.026 186.329C492.92 191.371 505.178 198.763 512.528 204.765C516.04 207.632 522.209 210.806 529.79 213.98C537.343 217.143 546.209 220.27 555.045 223.062C572.757 228.657 590.202 232.864 596.682 233.37C600.135 233.64 602.64 234.952 604.164 236.963C605.678 238.961 606.119 241.511 605.734 244.063C605.107 248.225 602.266 252.585 597.827 255.173C603.097 256.222 607.352 258.293 609.862 260.385C610.623 261.019 611.249 261.676 611.694 262.332C612.132 262.978 612.444 263.695 612.454 264.429C612.465 265.216 612.126 265.914 611.486 266.417C610.887 266.888 610.071 267.156 609.127 267.281C608.496 267.365 607.703 267.725 606.744 268.438C605.797 269.144 604.758 270.142 603.643 271.391C601.412 273.889 598.959 277.296 596.402 281.129C591.405 288.621 585.963 297.823 581.266 304.445C581.257 316.761 573.079 347.074 534.554 383.247C515.192 401.425 503.201 411.962 494.537 418.049C486.213 423.897 480.888 425.684 475.014 426.185C472.99 442.614 465.146 462.727 454.069 483.935C442.797 505.518 428.133 528.318 412.708 549.657C397.282 570.997 381.082 590.893 366.731 606.666C352.408 622.409 339.851 634.132 331.716 639.037C328.234 641.137 324.428 641.48 320.397 640.537L325.53 646.638L-212.602 1078.65L-235 794.104L231.387 542.046C241.28 534.407 252.779 523.982 262.338 510.646C278.904 487.536 289.655 455.693 276.046 414.407C249.796 334.775 208.112 169.27 202.413 145.887C201.65 142.754 201.464 138.631 201.692 133.743C201.921 128.841 202.569 123.103 203.506 116.711C205.378 103.931 208.418 88.4476 211.621 71.6641C218.035 38.0548 225.109 -0.812054 224.927 -34.1523L224.921 -35.2168L225.982 -35.1562C229.675 -34.9473 235.133 -35.0151 240.263 -31.2822C245.407 -27.5382 250.048 -20.1297 252.699 -5.45703C254.94 6.94254 256.209 15.8081 256.802 22.2344C257.393 28.6477 257.317 32.6908 256.833 35.418C256.338 38.2071 255.414 39.6277 254.389 40.7734C253.426 41.8491 252.652 42.4446 251.997 43.7695C252.221 59.3493 254.074 94.4655 245.444 124.25C248.275 130.146 253.942 141.981 258.779 154.252C261.233 160.476 263.482 166.832 265.038 172.592C265.717 175.104 266.269 177.524 266.648 179.781C266.861 178.52 267.096 177.143 267.354 175.661C269.31 164.404 272.599 147.012 277.536 127.223C287.397 87.7016 303.883 38.4006 329.601 9.42285C349.488 -12.9852 366.52 -32.1857 379.164 -47.2939C385.486 -54.8479 390.701 -61.3666 394.623 -66.7432C398.561 -72.1415 401.143 -76.318 402.26 -79.2051L402.809 -80.625L403.894 -79.5576ZM503.873 251.367C508.659 257.667 511.288 265.296 510.83 273.39C509.691 293.51 490.025 308.527 467.198 307.235C444.371 305.942 426.526 288.803 427.664 268.683C427.671 268.564 427.681 268.445 427.689 268.327C414.542 283.834 407.145 298.015 404.938 308.94C404.022 313.473 406.68 318.607 410.751 323.356C414.521 327.756 419.301 331.588 422.788 333.93L423.468 334.378L423.511 334.406L423.551 334.438C425.407 335.93 428.316 337.526 431.873 339.133C435.414 340.732 439.538 342.317 443.783 343.799C451.969 346.657 460.562 349.118 466.206 350.574C467.881 348.621 470.193 347.277 472.809 346.244C475.65 345.122 478.95 344.33 482.347 343.545C489.216 341.958 496.527 340.381 502.273 336.3C508.063 332.187 512.488 326.296 516.531 320.838C518.537 318.13 520.46 315.516 522.387 313.345C524.131 311.38 525.935 309.712 527.885 308.649C527.764 304.675 528.757 294.92 535.349 284.86C540.773 276.583 549.948 268.16 565.277 262.569C553.435 263.694 540.528 263.43 523.882 259.579L523.811 259.562L523.742 259.535C516.259 256.604 509.678 253.874 503.873 251.367ZM488.905 251.304C488.167 251.304 487.403 251.722 486.785 252.586C486.169 253.448 485.757 254.692 485.757 256.11C485.757 257.529 486.169 258.773 486.785 259.636C487.403 260.5 488.167 260.918 488.905 260.918C489.643 260.918 490.406 260.5 491.023 259.636C491.64 258.773 492.053 257.529 492.053 256.11C492.053 254.692 491.639 253.448 491.023 252.586C490.406 251.722 489.643 251.304 488.905 251.304ZM464.23 232.977C462.009 232.179 460.478 231.947 459.229 232.158C458.013 232.365 456.917 233.02 455.619 234.337C454.831 235.137 454 236.147 453.047 237.395C457.818 235.701 463.028 234.77 468.469 234.76C466.844 234.01 465.451 233.415 464.23 232.977Z" fill="#222730"/>
<path d="M403.894 -79.5576L403.192 -78.8448L403.192 -78.8446L403.894 -79.5576ZM419.717 -55.1387L420.675 -55.4245L420.675 -55.4245L419.717 -55.1387ZM411.532 -17.6982L412.333 -17.0993V-17.0993L411.532 -17.6982ZM394.004 2.63867L394.706 3.35103V3.35103L394.004 2.63867ZM386.833 8.94824L387.427 9.75247V9.75247L386.833 8.94824ZM384.036 10.7354L384.489 11.6269L384.489 11.6268L384.036 10.7354ZM382.464 11.3398L382.237 10.3658L381.667 10.4985L381.503 11.0612L382.464 11.3398ZM369.272 46.0078L370.182 46.4232V46.4232L369.272 46.0078ZM350.013 78.2646L349.284 77.5802V77.5802L350.013 78.2646ZM336.527 117.531L335.532 117.625L335.532 117.631L336.527 117.531ZM336.533 117.59L337.533 117.623L337.535 117.556L337.528 117.49L336.533 117.59ZM336.531 117.649L335.532 117.617L335.532 117.625L336.531 117.649ZM330.034 200.032L329.047 199.874L330.972 200.38L330.034 200.032ZM345.212 155.294L344.251 155.017L344.249 155.023L345.212 155.294ZM345.812 153.214L344.852 152.931L344.851 152.937L345.812 153.214ZM410.892 75.9033L411.162 76.8661H411.162L410.892 75.9033ZM464.947 51.4688L465.404 52.3583V52.3583L464.947 51.4688ZM526.538 17.8037L526.032 16.941L526.032 16.9412L526.538 17.8037ZM527.643 17.1562L528.602 16.8739L528.241 15.6465L527.137 16.2935L527.643 17.1562ZM528.004 18.3838L527.045 18.6662V18.6662L528.004 18.3838ZM529.729 38.0273L530.719 38.1683V38.1683L529.729 38.0273ZM517.435 62.7354L518.177 63.4047L518.178 63.4047L517.435 62.7354ZM502.696 73.0547L503.167 73.9371V73.9371L502.696 73.0547ZM494.687 76.8018L495.048 77.7343V77.7343L494.687 76.8018ZM491.526 77.8457L491.772 78.8152L491.772 78.8152L491.526 77.8457ZM489.814 78.1367L489.758 77.1383L489.228 77.1685L488.956 77.6241L489.814 78.1367ZM453.378 111.657L453.892 112.515V112.515L453.378 111.657ZM424.68 123.067L424.396 122.108V122.108L424.68 123.067ZM414.753 126.429L414.332 125.522V125.522L414.753 126.429ZM412.085 128.092L411.394 127.369V127.369L412.085 128.092ZM411.255 129.633L410.256 129.576L410.256 129.58L411.255 129.633ZM411.25 129.726L412.22 129.968L412.244 129.875L412.249 129.778L411.25 129.726ZM411.228 129.815L410.257 129.573L410.256 129.577L411.228 129.815ZM386.009 223.118L385.132 222.637L386.734 223.806L386.009 223.118ZM443.272 182.033L443.6 182.978V182.978L443.272 182.033ZM480.026 186.329L480.391 185.398V185.398L480.026 186.329ZM512.528 204.765L511.896 205.539V205.539L512.528 204.765ZM529.79 213.98L529.404 214.903V214.903L529.79 213.98ZM555.045 223.062L554.744 224.015V224.015L555.045 223.062ZM596.682 233.37L596.604 234.367V234.367L596.682 233.37ZM604.164 236.963L604.961 236.359L604.961 236.359L604.164 236.963ZM605.734 244.063L606.723 244.212V244.212L605.734 244.063ZM597.827 255.173L597.324 254.309L595.043 255.638L597.632 256.154L597.827 255.173ZM609.862 260.385L610.502 259.617V259.616L609.862 260.385ZM611.694 262.332L612.522 261.771L612.522 261.77L611.694 262.332ZM612.454 264.429L613.454 264.415V264.414L612.454 264.429ZM611.486 266.417L612.105 267.203L612.105 267.203L611.486 266.417ZM609.127 267.281L608.996 266.29L608.995 266.29L609.127 267.281ZM606.744 268.438L606.147 267.636V267.636L606.744 268.438ZM603.643 271.391L602.897 270.725V270.725L603.643 271.391ZM596.402 281.129L595.57 280.574V280.574L596.402 281.129ZM581.266 304.445L580.45 303.867L580.266 304.126L580.266 304.445L581.266 304.445ZM534.554 383.247L535.238 383.976V383.976L534.554 383.247ZM494.537 418.049L495.112 418.867V418.867L494.537 418.049ZM475.014 426.185L474.929 425.188L474.12 425.257L474.021 426.062L475.014 426.185ZM454.069 483.935L453.183 483.472V483.472L454.069 483.935ZM412.708 549.657L413.518 550.243V550.243L412.708 549.657ZM366.731 606.666L367.471 607.339L366.731 606.666ZM331.716 639.037L332.232 639.893L332.232 639.893L331.716 639.037ZM320.397 640.537L320.625 639.563L317.695 638.878L319.632 641.181L320.397 640.537ZM325.53 646.638L326.156 647.417L326.954 646.777L326.295 645.994L325.53 646.638ZM-212.602 1078.65L-213.598 1078.72L-213.45 1080.61L-211.976 1079.43L-212.602 1078.65ZM-235 794.104L-235.475 793.225L-236.048 793.534L-235.997 794.183L-235 794.104ZM231.387 542.046L231.862 542.926L231.934 542.887L231.998 542.837L231.387 542.046ZM262.338 510.646L263.151 511.229V511.229L262.338 510.646ZM276.046 414.407L276.996 414.094V414.094L276.046 414.407ZM202.413 145.887L201.441 146.123L201.442 146.124L202.413 145.887ZM201.692 133.743L200.693 133.697V133.697L201.692 133.743ZM203.506 116.711L202.516 116.566V116.566L203.506 116.711ZM211.621 71.6641L212.603 71.8515V71.8515L211.621 71.6641ZM224.927 -34.1523L225.927 -34.1578V-34.1578L224.927 -34.1523ZM224.921 -35.2168L224.978 -36.2152L223.915 -36.2758L223.921 -35.2113L224.921 -35.2168ZM225.982 -35.1562L225.925 -34.1579L225.926 -34.1578L225.982 -35.1562ZM240.263 -31.2822L240.851 -32.0908L240.851 -32.0908L240.263 -31.2822ZM252.699 -5.45703L253.683 -5.63483V-5.63485L252.699 -5.45703ZM256.802 22.2344L257.798 22.1426V22.1425L256.802 22.2344ZM256.833 35.418L257.818 35.5927V35.5926L256.833 35.418ZM254.389 40.7734L255.134 41.4404L255.134 41.4403L254.389 40.7734ZM251.997 43.7695L251.101 43.3264L250.994 43.5427L250.997 43.7839L251.997 43.7695ZM245.444 124.25L244.484 123.972L244.378 124.339L244.543 124.683L245.444 124.25ZM258.779 154.252L259.71 153.885V153.885L258.779 154.252ZM265.038 172.592L266.003 172.331V172.331L265.038 172.592ZM266.648 179.781L265.662 179.947L267.635 179.947L266.648 179.781ZM267.354 175.661L266.368 175.49V175.49L267.354 175.661ZM277.536 127.223L276.566 126.981V126.981L277.536 127.223ZM329.601 9.42285L328.853 8.75906V8.75907L329.601 9.42285ZM379.164 -47.2939L379.931 -46.6521V-46.6521L379.164 -47.2939ZM394.623 -66.7432L395.431 -66.1538V-66.1538L394.623 -66.7432ZM402.26 -79.2051L403.192 -78.8443L403.193 -78.8446L402.26 -79.2051ZM402.809 -80.625L403.51 -81.3379L402.425 -82.4055L401.876 -80.9855L402.809 -80.625ZM503.873 251.367L504.27 250.449L500.772 248.938L503.077 251.972L503.873 251.367ZM510.83 273.39L511.828 273.446V273.446L510.83 273.39ZM467.198 307.235L467.142 308.234H467.142L467.198 307.235ZM427.664 268.683L426.666 268.626V268.626L427.664 268.683ZM427.689 268.327L428.687 268.395L428.893 265.362L426.927 267.68L427.689 268.327ZM404.938 308.94L403.957 308.742L403.957 308.742L404.938 308.94ZM410.751 323.356L409.992 324.007L409.992 324.007L410.751 323.356ZM422.788 333.93L422.231 334.76L422.238 334.764L422.788 333.93ZM423.468 334.378L422.917 335.213L422.917 335.213L423.468 334.378ZM423.511 334.406L424.138 333.627L424.101 333.597L424.061 333.571L423.511 334.406ZM423.551 334.438L422.924 335.217L422.924 335.218L423.551 334.438ZM431.873 339.133L431.461 340.044V340.044L431.873 339.133ZM443.783 343.799L443.454 344.743H443.454L443.783 343.799ZM466.206 350.574L465.956 351.543L466.56 351.698L466.965 351.225L466.206 350.574ZM472.809 346.244L472.441 345.314L472.441 345.314L472.809 346.244ZM482.347 343.545L482.122 342.571V342.571L482.347 343.545ZM502.273 336.3L502.852 337.115L502.853 337.115L502.273 336.3ZM516.531 320.838L515.728 320.243V320.243L516.531 320.838ZM522.387 313.345L521.639 312.681V312.681L522.387 313.345ZM527.885 308.649L528.363 309.528L528.903 309.233L528.884 308.619L527.885 308.649ZM535.349 284.86L534.512 284.312V284.312L535.349 284.86ZM565.277 262.569L565.62 263.509L565.183 261.574L565.277 262.569ZM523.882 259.579L523.655 260.553L523.656 260.553L523.882 259.579ZM523.811 259.562L523.439 260.491L523.51 260.519L523.584 260.536L523.811 259.562ZM523.742 259.535L524.114 258.607L524.107 258.604L523.742 259.535ZM488.905 251.304L488.906 250.304H488.905L488.905 251.304ZM486.785 252.586L485.971 252.005V252.005L486.785 252.586ZM485.757 256.11L484.757 256.11V256.11L485.757 256.11ZM486.785 259.636L485.971 260.217L485.971 260.217L486.785 259.636ZM488.905 260.918L488.905 261.918H488.906L488.905 260.918ZM491.023 259.636L491.837 260.217L491.837 260.217L491.023 259.636ZM492.053 256.11L493.053 256.11V256.11L492.053 256.11ZM491.023 252.586L491.837 252.005L491.837 252.005L491.023 252.586ZM464.23 232.977L464.568 232.035H464.568L464.23 232.977ZM459.229 232.158L459.062 231.172L459.062 231.172L459.229 232.158ZM455.619 234.337L454.907 233.635V233.635L455.619 234.337ZM453.047 237.395L452.252 236.787L450.208 239.463L453.381 238.337L453.047 237.395ZM468.469 234.76L468.471 235.76L468.888 233.852L468.469 234.76ZM403.894 -79.5576L403.192 -78.8446C408.646 -73.4818 415.668 -65.2138 418.759 -54.8528L419.717 -55.1387L420.675 -55.4245C417.441 -66.2667 410.135 -74.8221 404.595 -80.2706L403.894 -79.5576ZM419.717 -55.1387L418.758 -54.8529C421.849 -44.4915 421.007 -32.0358 410.731 -18.2972L411.532 -17.6982L412.333 -17.0993C422.982 -31.3378 423.949 -44.4485 420.675 -55.4245L419.717 -55.1387ZM411.532 -17.6982L410.731 -18.2972C404.892 -10.4896 398.612 -3.30547 393.302 1.92632L394.004 2.63867L394.706 3.35103C400.096 -1.95921 406.44 -9.22081 412.333 -17.0993L411.532 -17.6982ZM394.004 2.63867L393.302 1.92632C390.647 4.54211 388.233 6.66993 386.239 8.14401L386.833 8.94824L387.427 9.75247C389.526 8.20122 392.015 6.00239 394.706 3.35103L394.004 2.63867ZM386.833 8.94824L386.239 8.14401C385.241 8.88096 384.349 9.45464 383.583 9.84386L384.036 10.7354L384.489 11.6268C385.39 11.1693 386.38 10.5264 387.427 9.75247L386.833 8.94824ZM384.036 10.7354L383.583 9.84383C383.095 10.0919 382.641 10.272 382.237 10.3658L382.464 11.3398L382.69 12.3139C383.305 12.171 383.917 11.9178 384.489 11.6269L384.036 10.7354ZM382.464 11.3398L381.503 11.0612C378.924 19.9525 374.102 33.0255 368.363 45.5924L369.272 46.0078L370.182 46.4232C375.956 33.7814 380.814 20.6167 383.424 11.6185L382.464 11.3398ZM369.272 46.0078L368.363 45.5924C362.487 58.458 355.652 70.7964 349.284 77.5802L350.013 78.2646L350.742 78.9491C357.352 71.9077 364.299 59.3054 370.182 46.4232L369.272 46.0078ZM350.013 78.2646L349.284 77.5802C336.548 91.1473 334.809 109.929 335.532 117.625L336.527 117.531L337.523 117.438C336.832 110.085 338.532 91.9559 350.742 78.9491L350.013 78.2646ZM336.527 117.531L335.532 117.631L335.538 117.689L336.533 117.59L337.528 117.49L337.522 117.432L336.527 117.531ZM336.533 117.59L335.534 117.557L335.532 117.617L336.531 117.649L337.531 117.682L337.533 117.623L336.533 117.59ZM336.531 117.649L335.532 117.625C334.985 140.037 333.181 174.04 329.047 199.874L330.034 200.032L331.022 200.19C335.177 174.222 336.983 140.113 337.531 117.674L336.531 117.649ZM330.034 200.032L330.972 200.38C335.505 188.153 340.846 174.481 346.174 155.565L345.212 155.294L344.249 155.023C338.947 173.845 333.638 187.434 329.097 199.685L330.034 200.032ZM345.212 155.294L346.173 155.571L346.772 153.491L345.812 153.214L344.851 152.937L344.251 155.017L345.212 155.294ZM345.812 153.214L346.771 153.497C359.51 110.293 385.216 84.1448 411.162 76.8661L410.892 75.9033L410.622 74.9405C383.815 82.4607 357.72 109.292 344.852 152.931L345.812 153.214ZM410.892 75.9033L411.162 76.8661C421.705 73.9083 442.938 63.8986 465.404 52.3583L464.947 51.4688L464.49 50.5792C441.977 62.1439 420.932 72.0478 410.621 74.9405L410.892 75.9033ZM464.947 51.4688L465.404 52.3583C487.87 40.8178 511.57 27.7462 527.044 18.6662L526.538 17.8037L526.032 16.9412C510.593 26.0006 486.926 39.0542 464.49 50.5792L464.947 51.4688ZM526.538 17.8037L527.044 18.6664L528.148 18.019L527.643 17.1562L527.137 16.2935L526.032 16.941L526.538 17.8037ZM527.643 17.1562L526.683 17.4386L527.045 18.6662L528.004 18.3838L528.963 18.1014L528.602 16.8739L527.643 17.1562ZM528.004 18.3838L527.045 18.6662C528.568 23.8392 529.798 30.4498 528.74 37.8864L529.729 38.0273L530.719 38.1683C531.833 30.3495 530.533 23.4335 528.963 18.1014L528.004 18.3838ZM529.729 38.0273L528.74 37.8863C527.68 45.3232 524.331 53.5867 516.692 62.066L517.435 62.7354L518.178 63.4047C526.072 54.6421 529.602 46.0144 530.719 38.1683L529.729 38.0273ZM517.435 62.7354L516.692 62.066C513.802 65.2727 507.89 69.1517 502.226 72.1723L502.696 73.0547L503.167 73.9371C508.861 70.9003 515.04 66.8868 518.177 63.4047L517.435 62.7354ZM502.696 73.0547L502.226 72.1723C499.394 73.6826 496.624 74.9792 494.325 75.8692L494.687 76.8018L495.048 77.7343C497.44 76.808 500.284 75.4744 503.167 73.9371L502.696 73.0547ZM494.687 76.8018L494.325 75.8692C493.176 76.3142 492.144 76.658 491.281 76.8763L491.526 77.8457L491.772 78.8152C492.74 78.5702 493.854 78.1966 495.048 77.7343L494.687 76.8018ZM491.526 77.8457L491.281 76.8762C490.71 77.0208 490.192 77.1136 489.758 77.1383L489.814 78.1367L489.871 79.1351C490.48 79.1005 491.133 78.9766 491.772 78.8152L491.526 77.8457ZM489.814 78.1367L488.956 77.6241C482.971 87.6467 472.02 99.3229 452.864 110.799L453.378 111.657L453.892 112.515C473.27 100.905 484.486 89.0108 490.673 78.6494L489.814 78.1367ZM453.378 111.657L452.864 110.799C443.127 116.632 432.567 119.691 424.396 122.108L424.68 123.067L424.963 124.026C433.101 121.618 443.904 118.498 453.892 112.515L453.378 111.657ZM424.68 123.067L424.396 122.108C420.311 123.317 416.822 124.366 414.332 125.522L414.753 126.429L415.174 127.336C417.501 126.256 420.83 125.249 424.963 124.026L424.68 123.067ZM414.753 126.429L414.332 125.522C413.087 126.099 412.09 126.704 411.394 127.369L412.085 128.092L412.776 128.815C413.243 128.369 414.014 127.874 415.174 127.336L414.753 126.429ZM412.085 128.092L411.394 127.369C410.697 128.035 410.303 128.76 410.256 129.576L411.255 129.633L412.253 129.69C412.263 129.509 412.339 129.232 412.776 128.815L412.085 128.092ZM411.255 129.633L410.256 129.58L410.251 129.673L411.25 129.726L412.249 129.778L412.253 129.685L411.255 129.633ZM411.25 129.726L410.28 129.483L410.257 129.573L411.228 129.815L412.198 130.058L412.22 129.968L411.25 129.726ZM411.228 129.815L410.256 129.577C408.695 135.924 407.603 142.642 406.528 149.691C405.452 156.752 404.394 164.147 402.898 171.907C399.91 187.41 395.183 204.329 385.132 222.637L386.009 223.118L386.885 223.599C397.067 205.055 401.849 187.921 404.862 172.286C406.367 164.476 407.433 157.03 408.505 149.993C409.58 142.944 410.661 136.306 412.199 130.054L411.228 129.815ZM386.009 223.118L386.734 223.806C407.12 202.308 429.43 187.886 443.6 182.978L443.272 182.033L442.945 181.088C428.385 186.131 405.815 200.777 385.283 222.43L386.009 223.118ZM443.272 182.033L443.6 182.978C453.415 179.578 466.858 182.253 479.662 187.26L480.026 186.329L480.391 185.398C467.512 180.361 453.479 177.439 442.945 181.088L443.272 182.033ZM480.026 186.329L479.662 187.26C492.465 192.267 504.631 199.608 511.896 205.539L512.528 204.765L513.161 203.99C505.724 197.918 493.374 190.475 480.391 185.398L480.026 186.329ZM512.528 204.765L511.896 205.539C515.528 208.505 521.814 211.725 529.404 214.903L529.79 213.98L530.176 213.058C522.604 209.888 516.552 206.759 513.161 203.99L512.528 204.765ZM529.79 213.98L529.404 214.903C536.994 218.081 545.889 221.218 554.744 224.015L555.045 223.062L555.346 222.108C546.528 219.322 537.693 216.205 530.176 213.058L529.79 213.98ZM555.045 223.062L554.744 224.015C572.452 229.61 589.997 233.851 596.604 234.367L596.682 233.37L596.76 232.373C590.407 231.877 573.061 227.705 555.346 222.108L555.045 223.062ZM596.682 233.37L596.604 234.367C599.839 234.62 602.052 235.832 603.367 237.567L604.164 236.963L604.961 236.359C603.227 234.072 600.431 232.66 596.76 232.373L596.682 233.37ZM604.164 236.963L603.367 237.567C604.682 239.302 605.1 241.562 604.746 243.915L605.734 244.063L606.723 244.212C607.138 241.46 606.674 238.62 604.961 236.359L604.164 236.963ZM605.734 244.063L604.746 243.914C604.166 247.761 601.515 251.866 597.324 254.309L597.827 255.173L598.331 256.037C603.017 253.305 606.048 248.69 606.723 244.212L605.734 244.063ZM597.827 255.173L597.632 256.154C602.773 257.177 606.865 259.189 609.222 261.153L609.862 260.385L610.502 259.616C607.838 257.397 603.42 255.267 598.022 254.192L597.827 255.173ZM609.862 260.385L609.222 261.153C609.934 261.746 610.488 262.336 610.867 262.894L611.694 262.332L612.522 261.77C612.01 261.016 611.312 260.291 610.502 259.617L609.862 260.385ZM611.694 262.332L610.867 262.893C611.245 263.451 611.448 263.978 611.454 264.443L612.454 264.429L613.454 264.414C613.44 263.412 613.019 262.504 612.522 261.771L611.694 262.332ZM612.454 264.429L611.454 264.443C611.461 264.907 611.272 265.313 610.868 265.631L611.486 266.417L612.105 267.203C612.98 266.514 613.469 265.525 613.454 264.415L612.454 264.429ZM611.486 266.417L610.868 265.631C610.465 265.948 609.847 266.177 608.996 266.29L609.127 267.281L609.258 268.273C610.294 268.135 611.309 267.829 612.105 267.203L611.486 266.417ZM609.127 267.281L608.995 266.29C608.123 266.406 607.168 266.876 606.147 267.636L606.744 268.438L607.341 269.241C608.237 268.574 608.868 268.324 609.258 268.273L609.127 267.281ZM606.744 268.438L606.147 267.636C605.125 268.397 604.036 269.448 602.897 270.725L603.643 271.391L604.388 272.057C605.48 270.835 606.468 269.891 607.341 269.241L606.744 268.438ZM603.643 271.391L602.897 270.725C600.617 273.277 598.133 276.732 595.57 280.574L596.402 281.129L597.234 281.684C599.785 277.86 602.206 274.501 604.388 272.057L603.643 271.391ZM596.402 281.129L595.57 280.574C590.512 288.157 585.152 297.238 580.45 303.867L581.266 304.445L582.081 305.024C586.774 298.408 592.298 289.084 597.234 281.684L596.402 281.129ZM581.266 304.445L580.266 304.445C580.258 316.407 572.258 346.473 533.869 382.518L534.554 383.247L535.238 383.976C573.9 347.674 582.257 317.115 582.266 304.446L581.266 304.445ZM534.554 383.247L533.869 382.518C514.501 400.703 502.56 411.191 493.962 417.231L494.537 418.049L495.112 418.867C503.843 412.733 515.883 402.148 535.238 383.976L534.554 383.247ZM494.537 418.049L493.962 417.231C485.745 423.003 480.587 424.707 474.929 425.188L475.014 426.185L475.099 427.181C481.19 426.662 486.68 424.791 495.112 418.867L494.537 418.049ZM475.014 426.185L474.021 426.062C472.019 442.313 464.241 462.299 453.183 483.472L454.069 483.935L454.956 484.398C466.05 463.156 473.96 442.916 476.006 426.307L475.014 426.185ZM454.069 483.935L453.183 483.472C441.939 505 427.303 527.759 411.898 549.071L412.708 549.657L413.518 550.243C428.963 528.878 443.655 506.035 454.956 484.398L454.069 483.935ZM412.708 549.657L411.898 549.071C396.492 570.384 380.315 590.25 365.992 605.993L366.731 606.666L367.471 607.339C381.849 591.536 398.072 571.611 413.518 550.243L412.708 549.657ZM366.731 606.666L365.992 605.993C351.668 621.737 339.196 633.358 331.199 638.181L331.716 639.037L332.232 639.893C340.505 634.905 353.148 623.082 367.471 607.339L366.731 606.666ZM331.716 639.037L331.199 638.181C327.982 640.121 324.454 640.458 320.625 639.563L320.397 640.537L320.17 641.511C324.403 642.501 328.485 642.153 332.232 639.893L331.716 639.037ZM320.397 640.537L319.632 641.181L324.765 647.281L325.53 646.638L326.295 645.994L321.163 639.893L320.397 640.537ZM325.53 646.638L324.904 645.858L-213.228 1077.87L-212.602 1078.65L-211.976 1079.43L326.156 647.417L325.53 646.638ZM-212.602 1078.65L-211.605 1078.57L-234.003 794.026L-235 794.104L-235.997 794.183L-213.598 1078.72L-212.602 1078.65ZM-235 794.104L-234.525 794.984L231.862 542.926L231.387 542.046L230.911 541.166L-235.475 793.225L-235 794.104ZM231.387 542.046L231.998 542.837C241.939 535.162 253.517 524.669 263.151 511.229L262.338 510.646L261.525 510.064C252.041 523.295 240.621 533.653 230.776 541.254L231.387 542.046ZM262.338 510.646L263.151 511.229C279.87 487.906 290.721 455.733 276.996 414.094L276.046 414.407L275.096 414.72C288.589 455.652 277.939 487.166 261.525 510.064L262.338 510.646ZM276.046 414.407L276.996 414.094C250.76 334.505 209.085 169.038 203.385 145.65L202.413 145.887L201.442 146.124C207.139 169.502 248.832 335.045 275.096 414.72L276.046 414.407ZM202.413 145.887L203.385 145.65C202.655 142.655 202.465 138.645 202.691 133.79L201.692 133.743L200.693 133.697C200.464 138.617 200.645 142.852 201.441 146.123L202.413 145.887ZM201.692 133.743L202.691 133.79C202.918 128.934 203.561 123.232 204.495 116.856L203.506 116.711L202.516 116.566C201.578 122.973 200.924 128.748 200.693 133.697L201.692 133.743ZM203.506 116.711L204.495 116.856C206.364 104.103 209.398 88.6479 212.603 71.8515L211.621 71.6641L210.639 71.4766C207.438 88.2473 204.393 103.759 202.516 116.566L203.506 116.711ZM211.621 71.6641L212.603 71.8515C219.014 38.2582 226.11 -0.704109 225.927 -34.1578L224.927 -34.1523L223.927 -34.1469C224.109 -0.919998 217.056 37.8515 210.639 71.4766L211.621 71.6641ZM224.927 -34.1523L225.927 -34.1578L225.921 -35.2223L224.921 -35.2168L223.921 -35.2113L223.927 -34.1468L224.927 -34.1523ZM224.921 -35.2168L224.864 -34.2184L225.925 -34.1579L225.982 -35.1562L226.039 -36.1546L224.978 -36.2152L224.921 -35.2168ZM225.982 -35.1562L225.926 -34.1578C229.692 -33.9448 234.826 -34.0016 239.674 -30.4737L240.263 -31.2822L240.851 -32.0908C235.44 -36.0287 229.659 -35.9499 226.039 -36.1547L225.982 -35.1562ZM240.263 -31.2822L239.674 -30.4737C244.522 -26.9457 249.085 -19.8323 251.715 -5.27921L252.699 -5.45703L253.683 -5.63485C251.01 -20.4272 246.292 -28.1307 240.851 -32.0908L240.263 -31.2822ZM252.699 -5.45703L251.715 -5.27923C253.953 7.10741 255.217 15.9411 255.806 22.3262L256.802 22.2344L257.798 22.1425C257.201 15.6752 255.926 6.77767 253.683 -5.63483L252.699 -5.45703ZM256.802 22.2344L255.806 22.3262C256.395 28.7107 256.309 32.6484 255.848 35.2433L256.833 35.418L257.818 35.5926C258.325 32.7332 258.392 28.5847 257.798 22.1426L256.802 22.2344ZM256.833 35.418L255.848 35.2433C255.388 37.8378 254.553 39.0905 253.644 40.1065L254.389 40.7734L255.134 41.4403C256.275 40.1649 257.288 38.5764 257.818 35.5927L256.833 35.418ZM254.389 40.7734L253.644 40.1065C252.789 41.0617 251.836 41.8388 251.101 43.3264L251.997 43.7695L252.894 44.2126C253.468 43.0504 254.063 42.6365 255.134 41.4404L254.389 40.7734ZM251.997 43.7695L250.997 43.7839C251.222 59.4293 253.062 94.3651 244.484 123.972L245.444 124.25L246.405 124.528C255.087 94.5658 253.22 59.2692 252.997 43.7552L251.997 43.7695ZM245.444 124.25L244.543 124.683C247.373 130.578 253.026 142.385 257.849 154.619L258.779 154.252L259.71 153.885C254.858 141.578 249.176 129.713 246.346 123.817L245.444 124.25ZM258.779 154.252L257.849 154.619C260.296 160.825 262.53 167.142 264.073 172.853L265.038 172.592L266.003 172.331C264.433 166.521 262.17 160.127 259.71 153.885L258.779 154.252ZM265.038 172.592L264.073 172.853C264.745 175.342 265.29 177.729 265.662 179.947L266.648 179.781L267.635 179.616C267.249 177.318 266.689 174.866 266.003 172.331L265.038 172.592ZM266.648 179.781L267.635 179.947C267.846 178.687 268.082 177.312 268.339 175.832L267.354 175.661L266.368 175.49C266.111 176.973 265.875 178.352 265.662 179.615L266.648 179.781ZM267.354 175.661L268.339 175.832C270.293 164.59 273.577 147.223 278.506 127.465L277.536 127.223L276.566 126.981C271.621 146.8 268.327 164.218 266.368 175.49L267.354 175.661ZM277.536 127.223L278.506 127.465C288.366 87.9477 304.808 38.8647 330.349 10.0866L329.601 9.42285L328.853 8.75907C302.958 37.9365 286.428 87.4556 276.566 126.981L277.536 127.223ZM329.601 9.42285L330.349 10.0866C350.232 -12.3174 367.275 -31.5303 379.931 -46.6521L379.164 -47.2939L378.397 -47.9358C365.764 -32.8412 348.744 -13.6531 328.853 8.75906L329.601 9.42285ZM379.164 -47.2939L379.931 -46.6521C386.259 -54.2129 391.49 -60.751 395.431 -66.1538L394.623 -66.7432L393.815 -67.3325C389.912 -61.9821 384.714 -55.4829 378.397 -47.9358L379.164 -47.2939ZM394.623 -66.7432L395.431 -66.1538C399.372 -71.5563 402.024 -75.8243 403.192 -78.8443L402.26 -79.2051L401.327 -79.5659C400.262 -76.8117 397.75 -72.7267 393.815 -67.3325L394.623 -66.7432ZM402.26 -79.2051L403.193 -78.8446L403.741 -80.2645L402.809 -80.625L401.876 -80.9855L401.327 -79.5656L402.26 -79.2051ZM402.809 -80.625L402.107 -79.9121L403.192 -78.8448L403.894 -79.5576L404.595 -80.2705L403.51 -81.3379L402.809 -80.625ZM503.873 251.367L503.077 251.972C507.733 258.101 510.275 265.499 509.832 273.333L510.83 273.39L511.828 273.446C512.301 265.093 509.585 257.233 504.669 250.762L503.873 251.367ZM510.83 273.39L509.832 273.333C508.731 292.773 489.67 307.505 467.255 306.237L467.198 307.235L467.142 308.234C490.381 309.549 510.65 294.248 511.828 273.446L510.83 273.39ZM467.198 307.235L467.255 306.237C444.84 304.967 427.563 288.179 428.662 268.739L427.664 268.683L426.666 268.626C425.489 289.428 443.903 306.917 467.142 308.234L467.198 307.235ZM427.664 268.683L428.662 268.739C428.669 268.62 428.677 268.55 428.687 268.395L427.689 268.327L426.692 268.26C426.686 268.34 426.672 268.508 426.666 268.626L427.664 268.683ZM427.689 268.327L426.927 267.68C413.721 283.256 406.211 297.589 403.957 308.742L404.938 308.94L405.918 309.139C408.079 298.442 415.363 284.411 428.452 268.974L427.689 268.327ZM404.938 308.94L403.957 308.742C402.943 313.765 405.893 319.224 409.992 324.007L410.751 323.356L411.51 322.706C407.468 317.989 405.101 313.181 405.918 309.138L404.938 308.94ZM410.751 323.356L409.992 324.007C413.836 328.493 418.69 332.383 422.231 334.76L422.788 333.93L423.346 333.099C419.911 330.793 415.207 327.019 411.51 322.706L410.751 323.356ZM422.788 333.93L422.238 334.764L422.917 335.213L423.468 334.378L424.018 333.543L423.339 333.095L422.788 333.93ZM423.468 334.378L422.917 335.213L422.96 335.241L423.511 334.406L424.061 333.571L424.018 333.543L423.468 334.378ZM423.511 334.406L422.884 335.185L422.924 335.217L423.551 334.438L424.178 333.659L424.138 333.627L423.511 334.406ZM423.551 334.438L422.924 335.218C424.882 336.791 427.884 338.428 431.461 340.044L431.873 339.133L432.285 338.221C428.748 336.624 425.933 335.07 424.177 333.659L423.551 334.438ZM431.873 339.133L431.461 340.044C435.039 341.66 439.192 343.255 443.454 344.743L443.783 343.799L444.113 342.855C439.884 341.378 435.79 339.805 432.285 338.221L431.873 339.133ZM443.783 343.799L443.454 344.743C451.671 347.612 460.291 350.081 465.956 351.543L466.206 350.574L466.456 349.606C460.832 348.155 452.267 345.701 444.113 342.855L443.783 343.799ZM466.206 350.574L466.965 351.225C468.493 349.444 470.638 348.176 473.176 347.174L472.809 346.244L472.441 345.314C469.748 346.378 467.27 347.798 465.447 349.923L466.206 350.574ZM472.809 346.244L473.176 347.174C475.937 346.084 479.166 345.306 482.572 344.519L482.347 343.545L482.122 342.571C478.735 343.353 475.363 344.16 472.441 345.314L472.809 346.244ZM482.347 343.545L482.572 344.519C489.384 342.945 496.913 341.334 502.852 337.115L502.273 336.3L501.694 335.484C496.142 339.428 489.048 340.97 482.122 342.571L482.347 343.545ZM502.273 336.3L502.853 337.115C508.792 332.896 513.305 326.873 517.335 321.433L516.531 320.838L515.728 320.243C511.671 325.719 507.334 331.478 501.694 335.485L502.273 336.3ZM516.531 320.838L517.335 321.433C519.349 318.713 521.244 316.139 523.135 314.008L522.387 313.345L521.639 312.681C519.677 314.892 517.724 317.547 515.728 320.243L516.531 320.838ZM522.387 313.345L523.135 314.008C524.847 312.079 526.561 310.509 528.363 309.528L527.885 308.649L527.406 307.771C525.308 308.915 523.414 310.681 521.639 312.681L522.387 313.345ZM527.885 308.649L528.884 308.619C528.768 304.809 529.726 295.265 536.185 285.408L535.349 284.86L534.512 284.312C527.787 294.575 526.759 304.541 526.885 308.68L527.885 308.649ZM535.349 284.86L536.185 285.408C541.488 277.317 550.487 269.027 565.62 263.509L565.277 262.569L564.935 261.63C549.409 267.292 540.058 275.85 534.512 284.312L535.349 284.86ZM565.277 262.569L565.183 261.574C553.439 262.69 540.64 262.43 524.107 258.605L523.882 259.579L523.656 260.553C540.416 264.431 553.431 264.699 565.372 263.565L565.277 262.569ZM523.882 259.579L524.109 258.605L524.037 258.589L523.811 259.562L523.584 260.536L523.655 260.553L523.882 259.579ZM523.811 259.562L524.182 258.634L524.114 258.607L523.742 259.535L523.371 260.464L523.439 260.491L523.811 259.562ZM523.742 259.535L524.107 258.604C516.634 255.677 510.064 252.952 504.27 250.449L503.873 251.367L503.477 252.285C509.291 254.797 515.883 257.531 523.378 260.466L523.742 259.535ZM488.905 251.304L488.905 250.304C487.762 250.304 486.724 250.951 485.971 252.005L486.785 252.586L487.599 253.167C488.081 252.492 488.571 252.304 488.906 252.304L488.905 251.304ZM486.785 252.586L485.971 252.005C485.221 253.055 484.757 254.507 484.757 256.11L485.757 256.11L486.757 256.11C486.757 254.876 487.117 253.841 487.599 253.167L486.785 252.586ZM485.757 256.11L484.757 256.11C484.757 257.713 485.221 259.166 485.971 260.217L486.785 259.636L487.599 259.055C487.117 258.38 486.757 257.345 486.757 256.11L485.757 256.11ZM486.785 259.636L485.971 260.217C486.724 261.271 487.763 261.918 488.905 261.918L488.905 260.918L488.906 259.918C488.571 259.918 488.081 259.73 487.599 259.054L486.785 259.636ZM488.905 260.918L488.906 261.918C490.048 261.918 491.085 261.27 491.837 260.217L491.023 259.636L490.21 259.055C489.727 259.73 489.239 259.918 488.905 259.918L488.905 260.918ZM491.023 259.636L491.837 260.217C492.587 259.166 493.053 257.714 493.053 256.11L492.053 256.11L491.053 256.11C491.053 257.344 490.692 258.38 490.21 259.055L491.023 259.636ZM492.053 256.11L493.053 256.11C493.053 254.507 492.587 253.055 491.837 252.005L491.023 252.586L490.21 253.167C490.692 253.842 491.053 254.877 491.053 256.11L492.053 256.11ZM491.023 252.586L491.837 252.005C491.085 250.952 490.048 250.304 488.906 250.304L488.905 251.304L488.905 252.304C489.238 252.304 489.727 252.492 490.21 253.167L491.023 252.586ZM464.23 232.977L464.568 232.035C462.29 231.218 460.563 230.918 459.062 231.172L459.229 232.158L459.397 233.144C460.392 232.975 461.728 233.141 463.893 233.918L464.23 232.977ZM459.229 232.158L459.062 231.172C457.561 231.427 456.285 232.236 454.907 233.635L455.619 234.337L456.331 235.039C457.548 233.804 458.464 233.302 459.397 233.144L459.229 232.158ZM455.619 234.337L454.907 233.635C454.074 234.48 453.213 235.53 452.252 236.787L453.047 237.395L453.841 238.002C454.786 236.765 455.587 235.794 456.331 235.039L455.619 234.337ZM453.047 237.395L453.381 238.337C458.045 236.682 463.143 235.769 468.471 235.76L468.469 234.76L468.467 233.76C462.914 233.77 457.591 234.721 452.712 236.452L453.047 237.395ZM468.469 234.76L468.888 233.852C467.252 233.097 465.829 232.488 464.568 232.035L464.23 232.977L463.893 233.918C465.074 234.342 466.436 234.923 468.05 235.668L468.469 234.76Z" fill="#222730"/>
<path d="M795.804 -101C802.082 -89.6918 834.35 -61.9129 879.521 -23.0762C937.541 26.8108 977.028 153.71 972.789 135.156C969.405 120.314 975.891 90.2576 979.649 78.0918C966.874 49.7772 963.714 14.5073 961.698 -0.956055C957.799 -7.06331 954.041 -11.4962 954.041 -49.1855C954.041 -78.7494 967.795 -79.878 975.087 -81.3447C984.254 -15.0705 1024.96 68.9745 1022.67 93.499C1020.44 117.437 1003.34 286.989 989.074 369.4C976.295 443.241 1029.88 479.603 1058.6 494.597L7233.59 2668.33L10950.3 5770.75L968.372 598.821C968.282 598.785 968.192 598.748 968.102 598.709C965.677 597.662 962.83 596.173 959.627 594.289L959.284 594.112L959.295 594.093C917.438 569.311 816.126 478.212 800.84 419.05C786.737 416.561 775.952 409.095 734.001 373.757C693.633 339.752 679.123 314.241 677.582 302.604C666.44 290.768 666.449 283.001 646.955 270.558C641.754 267.238 639.006 257.116 646.346 255.197C641.021 249.915 642.889 237.794 651.714 235.818C664.457 232.965 717.759 209.299 730.243 195.543C742.728 181.786 773.536 159.737 793.655 163.746C809.751 166.954 841.832 191.024 864.864 209.922C834.449 173.488 829.058 132.454 818.581 106.267C817.287 99.8403 795 102.437 774.344 93.5898C753.687 84.7426 741.269 74.5177 734.055 65.3096C733.176 68.9495 711.69 59.7486 705.14 54.2021C687.823 39.5354 687.366 23.3439 688.864 12.6807C721.64 26.3644 788.781 51.2891 810.193 54.2217C836.958 57.8868 866.253 80.8593 884.792 123.107C895.307 147.071 905.901 169.155 913.177 183.827C903.769 158.621 894.138 109.997 889.773 84.0791C889.383 76.3624 885.014 58.0144 870.659 46.3516C856.303 34.6887 836.962 1.29435 829.492 -15.6123C820.334 -19.3769 810.684 -26.19 797.067 -40.0264C773.108 -64.3739 786.691 -88.872 795.804 -101ZM815.984 240.104C790.33 215.504 789.064 210.104 766.868 223.616C788.487 225.581 804.913 242.022 803.84 260.991C802.739 280.431 783.677 295.163 761.263 293.895C738.849 292.625 721.572 275.837 722.672 256.397C722.783 254.433 723.08 252.516 723.543 250.659C702.874 258.539 692.566 259.939 681.87 259.539C680.749 259.42 679.617 259.358 678.478 259.358C679.621 259.434 680.748 259.497 681.87 259.539C707.3 262.224 727.956 294.14 728.402 300.546C736.755 303.176 745.005 317.813 757.795 324.518C770.585 331.222 784.663 324.519 795.259 333.931C805.861 329.522 828.753 318.875 835.496 311.562C841.828 305.975 853.639 292.389 850.228 282.727C845.965 270.649 833.455 256.857 815.984 240.104ZM781.742 237.864C779.451 237.865 777.595 240.465 777.595 243.672C777.595 246.879 779.451 249.478 781.742 249.479C784.032 249.478 785.89 246.879 785.89 243.672C785.89 240.465 784.032 237.865 781.742 237.864Z" fill="#222730"/>
</g>
<defs>
<clipPath id="clip0_397_230">
<rect width="1200" height="628" fill="white"/>
</clipPath>
</defs>
</svg>
